Parastoo-Bold.glyphspackage
{
glyphname = exclam;
layers = (
{
layerId = m001;
shapes = (
{
closed = 1;
nodes = (
(371.734,16.721,o),
(335.803,1.997,o),
(293.409,1.99,cs),
(251.136,1.997,o),
(214.995,17.089,o),
(184.984,47.267,cs),
(154.995,77.755,o),
(140.3,112.834,o),
(140.899,152.501,cs),
(141.633,194.834,o),
(156.725,230.649,o),
(186.176,259.947,cs),
(215.392,288.649,o),
(251.136,303.145,o),
(293.409,303.436,cs),
(335.803,303.145,o),
(371.734,288.675,o),
(401.203,260.024,cs),
(431.068,230.675,o),
(445.973,195.103,o),
(445.92,153.309,cs),
(445.973,111.103,o),
(431.068,75.387,o),
(401.203,46.162,cs)
);
},
{
closed = 1;
nodes = (
(346.938,543.505,ls),
(344.313,523.835,o),
(328.868,514.292,o),
(300.603,514.875,cs),
(267.301,515.63,o),
(249.472,525.152,o),
(247.115,543.441,cs),
(159.346,1224.37,ls),
(131.739,1437.12,o),
(171.034,1543.49,o),
(277.229,1543.49,cs),
(306.199,1543.49,ls),
(410.733,1543.16,o),
(450.775,1436.92,o),
(426.325,1224.77,cs)
);
}
);
width = 586;
}
);
unicode = 33;
}
{
glyphname = period;
layers = (
{
layerId = m001;
shapes = (
{
closed = 1;
nodes = (
(446,69.547,o),
(376.887,2,o),
(293,2,cs),
(212.333,2,o),
(141,70.146,o),
(141,150,cs),
(141,235.165,o),
(207.487,303,o),
(293,303,cs),
(377.421,303,o),
(446,236.802,o),
(446,153,cs)
);
}
);
width = 586;
}
);
unicode = 46;
}
{
glyphname = slash;
layers = (
{
layerId = m001;
shapes = (
{
closed = 1;
nodes = (
(240,-96,l),
(59,-96,l),
(627,1554,l),
(808,1554,l)
);
}
);
width = 868;
}
);
unicode = 47;
}
{
glyphname = colon;
layers = (
{
layerId = m001;
shapes = (
{
closed = 1;
nodes = (
(212,586,o),
(141,654,o),
(141,734,cs),
(141,819,o),
(208,886,o),
(293,887,cs),
(377,886,o),
(446,821,o),
(446,737,cs),
(446,654,o),
(377,586,o),
(293,586,cs)
);
},
{
closed = 1;
nodes = (
(212,2,o),
(141,70,o),
(141,150,cs),
(141,235,o),
(208,302,o),
(293,303,cs),
(377,302,o),
(446,237,o),
(446,153,cs),
(446,70,o),
(377,2,o),
(293,2,cs)
);
}
);
width = 585;
}
);
unicode = 58;
}
{
glyphname = guillemetleft;
layers = (
{
layerId = m001;
shapes = (
{
closed = 1;
nodes = (
(90,734.812,o),
(186.319,901.351,o),
(340.778,993.19,cs),
(343.533,994.828,l),
(346.661,995.523,ls),
(358.354,998.122,o),
(370.614,993.553,o),
(378.164,985.954,cs),
(383.789,980.292,o),
(387.371,973.979,o),
(390.889,966.944,cs),
(394.224,960.274,o),
(395.312,947.783,o),
(392.091,941.272,cs),
(310.306,805.616,o),
(273,662.65,o),
(273,498,cs),
(273,334.454,o),
(315.691,187.896,o),
(401.002,54.536,cs),
(411.592,36.887,o),
(400.603,20.032,o),
(391.016,11.815,cs),
(383.841,5.665,o),
(372.445,-3.351,o),
(356.712,-0.728,cs),
(353.774,-0.238,l),
(351.106,1.086,ls),
(200.532,75.84,o),
(90,292.226,o),
(90,506,cs)
);
},
{
closed = 1;
nodes = (
(629.004,809.191,o),
(589,660.424,o),
(589,498,cs),
(589,336.144,o),
(630.6,188.063,o),
(712.77,56.502,cs),
(727.323,37.498,o),
(716.875,20.266,o),
(707.016,11.815,cs),
(698.042,4.123,o),
(685.791,-3.241,o),
(670.712,-0.728,cs),
(667.745,-0.233,l),
(665.056,1.111,ls),
(515.476,75.901,o),
(405,293.226,o),
(405,506,cs),
(405,734.966,o),
(503.432,901.417,o),
(657.778,993.19,cs),
(660.533,994.828,l),
(663.661,995.523,ls),
(688.749,1001.1,o),
(701.178,977.332,o),
(705.425,965.86,cs),
(707.165,962.148,o),
(713.041,956.119,o),
(707.318,941.687,cs)
);
}
);
width = 797;
}
);
unicode = 171;
}
{
glyphname = guillemetright;
layers = (
{
layerId = m001;
shapes = (
{
closed = 1;
nodes = (
(707,292.226,o),
(596.468,75.84,o),
(445.894,1.086,cs),
(443.226,-0.238,l),
(440.288,-0.728,ls),
(424.555,-3.351,o),
(413.159,5.665,o),
(405.984,11.815,cs),
(396.397,20.032,o),
(385.408,36.887,o),
(395.998,54.536,cs),
(481.31,187.896,o),
(524,334.454,o),
(524,498,cs),
(524,662.702,o),
(485.878,806.972,o),
(404.909,941.272,cs),
(398.986,953.243,o),
(403.263,961.247,o),
(406.111,966.944,cs),
(409.629,973.979,o),
(413.211,980.292,o),
(418.836,985.954,cs),
(426.386,993.553,o),
(438.646,998.122,o),
(450.339,995.523,cs),
(453.467,994.828,l),
(456.222,993.19,ls),
(610.68,901.351,o),
(707,734.812,o),
(707,506,cs)
);
},
{
closed = 1;
nodes = (
(83.61,956.998,o),
(91.276,965.224,o),
(91.575,965.86,cs),
(96.717,979.747,o),
(109.192,1000.89,o),
(133.339,995.523,cs),
(136.467,994.828,l),
(139.222,993.19,ls),
(293.568,901.417,o),
(392,734.966,o),
(392,506,cs),
(392,293.226,o),
(281.524,75.901,o),
(131.944,1.111,cs),
(129.255,-0.233,l),
(126.288,-0.728,ls),
(111.209,-3.241,o),
(98.958,4.123,o),
(89.984,11.815,cs),
(78.669,21.514,o),
(71.746,40.199,o),
(84.231,56.502,cs),
(167.243,189.411,o),
(208,336.194,o),
(208,498,cs),
(208,660.424,o),
(167.996,809.191,o),
(89.682,941.687,cs)
);
}
);
width = 797;
}
);
unicode = 187;
}
{
glyphname = "comma-ar";
layers = (
{
layerId = m001;
shapes = (
{
closed = 1;
nodes = (
(185,1,o),
(133,72,o),
(133,186,cs),
(133,385,o),
(221,531,o),
(410,645,cs),
(474,681,o),
(522,634,o),
(459,589,cs),
(390,538,o),
(302,412,o),
(301,316,c),
(392,302,o),
(452,254,o),
(452,158,cs),
(452,57,o),
(399,1,o),
(295,1,cs)
);
}
);
width = 586;
}
);
unicode = 1548;
}
{
glyphname = "dateseparator-ar";
layers = (
{
layerId = m001;
shapes = (
{
closed = 1;
nodes = (
(184,-209,l),
(55,-168,l),
(611,1457,l),
(740,1416,l)
);
}
);
width = 828;
}
);
unicode = 1549;
}
{
glyphname = "semicolon-ar";
layers = (
{
layerId = m001;
shapes = (
{
closed = 1;
nodes = (
(185,511,o),
(133,582,o),
(133,696,cs),
(133,895,o),
(221,1041,o),
(410,1155,cs),
(474,1191,o),
(522,1144,o),
(459,1099,cs),
(390,1048,o),
(302,922,o),
(301,826,c),
(392,812,o),
(452,764,o),
(452,668,cs),
(452,567,o),
(399,511,o),
(295,511,cs)
);
},
{
closed = 1;
nodes = (
(446,69.547,o),
(376.887,2,o),
(293,2,cs),
(212.333,2,o),
(141,70.146,o),
(141,150,cs),
(141,235.165,o),
(207.487,303,o),
(293,303,cs),
(377.421,303,o),
(446,236.802,o),
(446,153,cs)
);
}
);
width = 586;
}
);
unicode = 1563;
}
{
glyphname = "question-ar";
layers = (
{
layerId = m001;
shapes = (
{
closed = 1;
nodes = (
(586,69,o),
(517,2,o),
(433,2,cs),
(352,2,o),
(281,70,o),
(281,150,cs),
(281,235,o),
(348,302,o),
(433,303,cs),
(517,302,o),
(586,237,o),
(586,153,cs)
);
},
{
closed = 1;
nodes = (
(368,1294,o),
(284,1228,o),
(284,1140,cs),
(284,963.441,o),
(541,915.25,o),
(541,671,cs),
(541,602,o),
(504,542,o),
(410,506,cs),
(392,500,o),
(380,505,o),
(372,524,cs),
(354,570,ls),
(348,586,o),
(355,598,o),
(378,605,cs),
(407,613,o),
(423,628,o),
(423,651,cs),
(423,809.77,o),
(64,929.397,o),
(64,1171,cs),
(64,1385.8,o),
(219.414,1532,o),
(427,1532,cs),
(618,1532,o),
(736,1412,o),
(736,1216,cs),
(736,1133,o),
(694,1013,o),
(642,947,c),
(569,987,l),
(593,1030,o),
(621,1088,o),
(621,1141,cs),
(621,1231,o),
(564,1294,o),
(457,1294,cs)
);
}
);
width = 825;
}
);
unicode = 1567;
}
{
glyphname = "hamza-ar";
layers = (
{
anchors = (
{
name = "Anchor-10";
pos = (410.878,1057.02);
},
{
name = "Anchor-7";
pos = (419.36,-48.826);
}
);
layerId = m001;
shapes = (
{
closed = 1;
nodes = (
(628.012,174.143,l),
(430.719,162.347,o),
(248.563,93.584,o),
(82.394,-4.155,c),
(133.363,234.192,l),
(146.454,240.064,o),
(172.396,250.972,o),
(211.188,266.917,c),
(155.173,330.847,o),
(127.165,392.844,o),
(127.165,452.908,cs),
(127.165,643.819,o),
(283.392,805.691,o),
(432.279,805.691,cs),
(571.115,805.691,o),
(654.586,729.079,o),
(705.799,595.166,c),
(657.082,527.039,l),
(571.616,569.263,o),
(498.359,590.374,o),
(437.31,590.374,cs),
(365.626,590.374,o),
(261.08,543.953,o),
(261.08,462.845,cs),
(261.08,391.198,o),
(333.565,354.969,o),
(394.855,354.969,cs),
(448.303,354.969,o),
(454.038,362.061,o),
(554.457,378.666,cs),
(642.819,393.555,o),
(687.773,401.389,o),
(689.319,402.166,cs),
(723.283,409.838,o),
(743.602,407.945,o),
(743.602,382.49,cs),
(743.602,366.884,o),
(734.039,343.737,o),
(714.913,313.047,cs)
);
}
);
width = 827;
}
);
unicode = 1569;
}
{
glyphname = "alef-ar";
layers = (
{
anchors = (
{
name = "Anchor-10";
pos = (219.041,1656.42);
},
{
name = "Anchor-7";
pos = (264.428,-212.065);
}
);
layerId = m001;
shapes = (
{
closed = 1;
nodes = (
(329,1575,o),
(335,1536,o),
(337,1492,cs),
(357,923,o),
(355,775,o),
(356,299,cs),
(356,176,o),
(290,25,o),
(165,-4,c),
(155,620,o),
(139,1073,o),
(98,1358,c),
(257,1528,ls),
(288,1559,o),
(307,1575,o),
(315,1575,cs)
);
}
);
width = 464;
}
);
unicode = 1575;
}
{
glyphname = "dal-ar";
layers = (
{
anchors = (
{
name = "Anchor-10";
pos = (475.345,1250.18);
},
{
name = "Anchor-7";
pos = (484.662,-216.64);
}
);
layerId = m001;
shapes = (
{
closed = 1;
nodes = (
(969,111.482,o),
(735.797,2,o),
(413,2,cs),
(186,2,o),
(84,110,o),
(84,326,cs),
(84,375,o),
(97,446,o),
(122,541,c),
(214,522,l),
(212,501,o),
(210,481,o),
(210,459,cs),
(210,376,o),
(286,335,o),
(439,335,cs),
(571,335,o),
(821,350,o),
(821,428,cs),
(821,513.004,o),
(540,728,o),
(436,789,c),
(500,1080,ls),
(505,1105,o),
(513,1113,o),
(524,1105,cs),
(741.916,964.827,o),
(969,751.863,o),
(969,436,cs)
);
}
);
width = 1047;
}
);
unicode = 1583;
}
{
glyphname = "reh-ar";
layers = (
{
anchors = (
{
name = "Anchor-10";
pos = (488.105,933.34);
},
{
name = "Anchor-7";
pos = (341.096,-713.978);
}
);
layerId = m001;
shapes = (
{
closed = 1;
nodes = (
(721.233,-124.748,o),
(625.713,-338.626,o),
(520,-460,cs),
(461.768,-527.191,o),
(425.281,-552.394,o),
(298.62,-552.394,cs),
(234.28,-552.394,o),
(-64.789,-523.794,o),
(-64.789,-471.107,cs),
(-64.789,-460.629,o),
(-47.921,-449.12,o),
(-16,-440,cs),
(327,-342,o),
(577.959,-41.292,o),
(577.959,51.684,cs),
(577.959,113.383,o),
(523.64,204.753,o),
(385,351,c),
(493,595,ls),
(509.109,631.394,o),
(520,628,o),
(549,592,cs),
(631.591,489.473,o),
(690.837,348.976,o),
(713,197,cs),
(718.477,159.445,o),
(721.233,121.822,o),
(721.233,84.113,cs)
);
}
);
width = 794;
}
);
unicode = 1585;
}
{
glyphname = "seen-ar";
layers = (
{
anchors = (
{
name = "Anchor-10";
pos = (1686.47,1126.44);
},
{
name = "Anchor-7";
pos = (636.427,-790.57);
}
);
layerId = m001;
shapes = (
{
closed = 1;
nodes = (
(1807,0,o),
(1721,63,o),
(1660,153,c),
(1584,61,o),
(1507,0,o),
(1425,0,cs),
(1381,0,o),
(1336,13,o),
(1292,40,c),
(1286,-387,o),
(1029,-600,o),
(651,-600,cs),
(305.448,-600,o),
(93,-473.097,o),
(93,-170,cs),
(93,-46,o),
(129,98,o),
(200,261,c),
(290,223,l),
(253,131,o),
(235,50,o),
(235,-19,cs),
(235,-214.586,o),
(410.442,-289,o),
(642,-289,cs),
(871,-289,o),
(1066,-224,o),
(1165,-103,c),
(1110,50,o),
(1044,199,o),
(967,324,c),
(1090,530,ls),
(1115.42,571.867,o),
(1127.55,590.752,o),
(1152,550,cs),
(1161,535,o),
(1179,503,o),
(1206,454,cs),
(1258,360,o),
(1298,333,o),
(1430,333,cs),
(1541,333,o),
(1606,389,o),
(1623,493,cs),
(1642,605,l),
(1763,587,l),
(1752,500,ls),
(1739.38,388.731,o),
(1797.61,333,o),
(1935,333,cs),
(2034,333,o),
(2083,359,o),
(2083,409,cs),
(2083,431,o),
(2044,496,o),
(1970,604,c),
(2102,832,ls),
(2124,869,o),
(2135,857,o),
(2156,821,cs),
(2220,716,o),
(2254,591,o),
(2254,447,cs),
(2254,232,o),
(2120,0,o),
(1917,0,cs)
);
}
);
width = 2333;
}
);
unicode = 1587;
}
{
glyphname = "tah-ar";
layers = (
{
anchors = (
{
name = "Anchor-10";
pos = (568.377,1634.21);
},
{
name = "Anchor-7";
pos = (735.854,-221.413);
}
);
layerId = m001;
shapes = (
{
closed = 1;
nodes = (
(599,1529,ls),
(657,1589,o),
(676.906,1609.48,o),
(678,1504,cs),
(694,611,l),
(865,799,o),
(1030,893,o),
(1170,893,cs),
(1379.2,893,o),
(1509.01,751.09,o),
(1509.01,532.518,cs),
(1509.01,157.903,o),
(1174,3,o),
(684,0,cs),
(543,0,ls),
(472.959,0,o),
(414.042,16.285,o),
(362,52,cs),
(278,110,o),
(199,170,o),
(125,230,cs),
(82,265,o),
(61,290,o),
(61,307,cs),
(61,326,o),
(85,333,o),
(125,333,cs),
(448,335,l),
(469,362,o),
(491,390,o),
(513,417,c),
(506,733,o),
(486,1148,o),
(437,1358,c)
);
},
{
closed = 1;
nodes = (
(1354,534,o),
(1247,588,o),
(1137,588,cs),
(914,588,o),
(747,449,o),
(607,335,c),
(887,335,ls),
(1196,335,o),
(1354,369,o),
(1354,438,cs)
);
}
);
width = 1605;
}
);
unicode = 1591;
}
{
glyphname = "ain-ar";
layers = (
{
anchors = (
{
name = "Anchor-10";
pos = (696.723,1429.26);
},
{
name = "Anchor-7";
pos = (644.792,-826.821);
}
);
layerId = m001;
shapes = (
{
closed = 1;
nodes = (
(336,-639,o),
(94,-470,o),
(94,-129,cs),
(94,93,o),
(202,273,o),
(418,411,c),
(343,499,o),
(306,581,o),
(306,658,cs),
(306,849,o),
(484,1073,o),
(697,1073,cs),
(854,1073,o),
(962,988,o),
(1039,829,c),
(987,765,l),
(885,806,o),
(796,826,o),
(720,826,cs),
(627,826,o),
(456,752,o),
(456,676,cs),
(456,651,o),
(629,532,o),
(664,532,cs),
(666,532,o),
(667,532,o),
(669,532,cs),
(808.843,554.315,o),
(949.034,575.494,o),
(1094,594,cs),
(1136,599,o),
(1151,579,o),
(1140,537,cs),
(1054,288,l),
(700.004,282.125,o),
(236,182.948,o),
(236,-91,cs),
(236,-294,o),
(514,-364,o),
(773,-364,cs),
(935,-364,o),
(1051,-345,o),
(1138,-329,cs),
(1195,-318,o),
(1230,-310,o),
(1199,-375,cs),
(1115,-552,o),
(943,-639,o),
(713,-639,cs)
);
}
);
width = 1305;
}
);
unicode = 1593;
}
{
glyphname = "kashida-ar";
layers = (
{
anchors = (
{
name = "Anchor-10";
pos = (149.417,1391.76);
},
{
name = "Anchor-7";
pos = (148.332,-177.021);
}
);
layerId = m001;
shapes = (
{
closed = 1;
nodes = (
(314,38,o),
(312,0,o),
(285,0,cs),
(-5,0,ls),
(-48,0,o),
(-50,38,o),
(-50,113,cs),
(-50,219,ls),
(-50,295,o),
(-48,333,o),
(-5,333,cs),
(285,333,ls),
(312,333,o),
(314,294,o),
(314,217,cs),
(314,114,ls)
);
}
);
width = 279;
}
);
unicode = 1600;
}
{
glyphname = "kaf-ar";
layers = (
{
anchors = (
{
name = "Anchor-10";
pos = (966.54,1444.27);
},
{
name = "Anchor-7";
pos = (876.157,-267.146);
}
);
layerId = m001;
shapes = (
{
closed = 1;
nodes = (
(1126.74,1288.03,o),
(1132.01,1288,o),
(1137,1288,cs),
(1157.67,1288,o),
(1172,1280.92,o),
(1172,1263,cs),
(1172,1258.16,o),
(1170.86,1252.77,o),
(1168.73,1246.39,cs),
(1131.72,1140.35,l),
(1130.67,1137.33,l),
(1127.48,1137.02,ls),
(960.026,1120.88,o),
(881,1087.1,o),
(881,1039,cs),
(881,1012.66,o),
(927.49,989.167,o),
(1030.86,970.926,cs),
(1141.82,951.583,o),
(1200,886.254,o),
(1200,775,cs),
(1200,624.272,o),
(1073.37,551,o),
(927,551,cs),
(841.53,551,o),
(763.984,563.068,o),
(694.419,586.257,cs),
(690.63,587.52,l),
(691.024,591.494,l),
(705.024,732.494,l),
(705.656,738.86,l),
(711.682,736.709,ls),
(781.119,711.909,o),
(853.526,700,o),
(929,700,cs),
(1035.97,700,o),
(1103,723.721,o),
(1103,773,cs),
(1103,798.802,o),
(1062.88,823.912,o),
(968.97,844.107,cs),
(853.125,868.496,o),
(794,937.736,o),
(794,1049,cs),
(794,1212.5,o),
(952.503,1266.98,o),
(1120.29,1286.95,cs)
);
},
{
closed = 1;
nodes = (
(1680,1529,ls),
(1737,1590,o),
(1758,1609,o),
(1759,1504,cs),
(1768,605,ls),
(1768,599,o),
(1768,594,o),
(1768,589,cs),
(1768,18,o),
(1453,-57,o),
(831,-57,cs),
(352,-57,o),
(97,55,o),
(97,396,cs),
(97,521,o),
(136,639,o),
(213,755,c),
(304,718,l),
(268,628,o),
(250,560,o),
(250,509,cs),
(250,334,o),
(447,275,o),
(850,275,cs),
(1260,275,o),
(1585,277,o),
(1585,542,cs),
(1585,860,o),
(1567,1111,o),
(1518,1358,c)
);
}
);
width = 1894;
}
);
unicode = 1603;
}
{
glyphname = "meem-ar";
layers = (
{
anchors = (
{
name = "Anchor-10";
pos = (583.659,1033.03);
},
{
name = "Anchor-7";
pos = (215.123,-858.52);
}
);
layerId = m001;
shapes = (
{
closed = 1;
nodes = (
(551,361,o),
(692,346,o),
(832,317,c),
(779,429,o),
(692,528,o),
(569,528,cs),
(486,528,o),
(426,408,o),
(409,362,c)
);
},
{
closed = 1;
nodes = (
(827,20,o),
(804,13,o),
(770,13,cs),
(755,13,o),
(739,14,o),
(721,17,cs),
(592,35,o),
(456,52,o),
(389,52,cs),
(330,52,o),
(290,46,o),
(258,36,c),
(286,-377,ls),
(293,-483,o),
(254,-580,o),
(177,-697,cs),
(148,-741,o),
(129,-762,o),
(119,-762,cs),
(108,-762,o),
(105,-727,o),
(104,-673,cs),
(94,-148,ls),
(94,-138,o),
(94,-129,o),
(94,-120,cs),
(94,127,o),
(159,286,o),
(290,358,c),
(342,643,o),
(440,786,o),
(587,786,cs),
(780,786,o),
(969,532,o),
(969,294,cs),
(969,166,o),
(915,92,o),
(851,40,cs)
);
}
);
width = 1056;
}
);
unicode = 1605;
}
{
glyphname = "heh-ar";
layers = (
{
anchors = (
{
name = "Anchor-10";
pos = (340.29,1145.38);
},
{
name = "Anchor-7";
pos = (385.186,-212.531);
}
);
layerId = m001;
shapes = (
{
closed = 1;
nodes = (
(240,531,o),
(209,457,o),
(209,417,cs),
(209,356.496,o),
(280.088,335,o),
(397,335,cs),
(481.445,335,o),
(607,356.112,o),
(607,424,cs),
(607,475,o),
(489,556,o),
(323,618,c)
);
},
{
closed = 1;
nodes = (
(167,5,o),
(83,117,o),
(83,350,cs),
(83,586.511,o),
(276.477,912,o),
(357,912,cs),
(436.819,912,o),
(734,747.297,o),
(734,443,cs),
(734,151,o),
(620,5,o),
(397,5,cs)
);
}
);
width = 816;
}
);
unicode = 1607;
}
{
glyphname = "waw-ar";
layers = (
{
anchors = (
{
name = "Anchor-10";
pos = (414.667,1030.67);
},
{
name = "Anchor-7";
pos = (341.096,-713.978);
}
);
layerId = m001;
shapes = (
{
closed = 1;
nodes = (
(266.26,-23.553,o),
(144.492,26.316,o),
(144.492,211.062,cs),
(144.492,413.071,o),
(236.249,716.143,o),
(428.529,716.143,cs),
(645.886,716.143,o),
(733.98,423.983,o),
(734.108,164.393,cs),
(733.956,-102.77,o),
(654.108,-316.903,o),
(530.254,-460.432,cs),
(468.071,-531.692,o),
(421.859,-551.261,o),
(293.072,-551.261,cs),
(225.024,-551.261,o),
(-46.934,-525.695,o),
(-46.934,-470.483,cs),
(-46.934,-454.929,o),
(-30.326,-450.509,o),
(1.791,-440.005,cs),
(262.597,-354.668,o),
(451.25,-213.287,o),
(567.751,-15.86,c),
(533.992,-20.988,o),
(500.856,-23.553,o),
(468.342,-23.553,cs)
);
},
{
closed = 1;
nodes = (
(269.682,302.132,o),
(326.64,295.596,o),
(419.383,295.596,cs),
(463.875,295.596,o),
(518.359,298.424,o),
(582.836,304.082,c),
(540.782,413.786,o),
(483.531,467.635,o),
(402.42,467.635,cs),
(334.552,467.635,o),
(269.682,397.038,o),
(269.682,343.633,cs)
);
}
);
width = 807;
}
);
unicode = 1608;
}
{
glyphname = "alefMaksura-ar";
layers = (
{
anchors = (
{
name = "Anchor-10";
pos = (659.458,869.11);
},
{
name = "Anchor-7";
pos = (710.003,-784.57);
}
);
layerId = m001;
shapes = (
{
closed = 1;
nodes = (
(1071,-286,o),
(1267.38,-135.42,o),
(1269,-100,cs),
(1269.59,-87.032,o),
(1250,-79,o),
(1213,-70,cs),
(883,8,ls),
(813,24,o),
(778,73,o),
(778,156,cs),
(778,480.729,o),
(1079.8,771,o),
(1345,771,cs),
(1402,771,o),
(1434,766,o),
(1495,747,c),
(1443,458,l),
(1396,464,ls),
(1371.08,466.719,o),
(1350,468,o),
(1321,468,cs),
(1133,468,o),
(972,386,o),
(940,278,c),
(1278,192,ls),
(1371,169,o),
(1417,112,o),
(1417,20,cs),
(1417,-406.584,o),
(1105.37,-584,o),
(671,-584,cs),
(301,-584,o),
(91,-432,o),
(91,-109,cs),
(91,21,o),
(128,158,o),
(202,302,c),
(292,264,l),
(258,169,o),
(241,81,o),
(241,-2,cs),
(241,-191,o),
(384,-286,o),
(692,-286,cs)
);
}
);
width = 1553;
}
);
unicode = 1609;
}
{
glyphname = "fathatan-ar";
layers = (
{
anchors = (
{
name = "Anchor-1";
pos = (553.285,1596.25);
},
{
name = "_Anchor-1";
pos = (583.551,1123.65);
},
{
name = "_Anchor-10";
pos = (583.551,1123.65);
},
{
name = "_Anchor-9";
pos = (583.551,1123.65);
}
);
layerId = m001;
shapes = (
{
closed = 1;
nodes = (
(322,1180,l),
(322,1183.36,l),
(325.108,1184.63,l),
(780.108,1370.63,l),
(787,1373.45,l),
(787,1366,l),
(787,1263,l),
(787,1259.65,l),
(783.901,1258.38,l),
(328.901,1071.38,l),
(322,1068.54,l),
(322,1076,l)
);
},
{
closed = 1;
nodes = (
(322,1392,l),
(322,1395.36,l),
(325.108,1396.63,l),
(780.108,1582.63,l),
(787,1585.45,l),
(787,1578,l),
(787,1475,l),
(787,1471.65,l),
(783.901,1470.38,l),
(328.901,1283.38,l),
(322,1280.54,l),
(322,1288,l)
);
}
);
width = 10;
}
);
unicode = 1611;
}
{
glyphname = "dammatan-ar";
layers = (
{
anchors = (
{
name = "Anchor-1";
pos = (637.739,1852.46);
},
{
name = "_Anchor-1";
pos = (680.906,1278.67);
},
{
name = "_Anchor-10";
pos = (680.906,1278.67);
},
{
name = "_Anchor-9";
pos = (680.906,1278.67);
}
);
layerId = m001;
shapes = (
{
closed = 1;
nodes = (
(484,1729.05,o),
(555.038,1796,o),
(652,1796,cs),
(749.503,1796,o),
(819,1729.9,o),
(819,1628,cs),
(819,1590.01,o),
(809.654,1549.63,o),
(794.039,1510.91,c),
(809.5,1508.59,o),
(820.343,1508,o),
(830,1508,cs),
(835,1508,l),
(835,1503,l),
(835,1427,l),
(835,1421.74,l),
(829.75,1422.01,ls),
(810.501,1422.97,o),
(785.678,1425.16,o),
(756.703,1430.42,c),
(692.392,1310.2,o),
(598.362,1245.99,o),
(471.867,1245.99,cs),
(335.67,1245.99,o),
(266.002,1342.85,o),
(263.001,1529.92,cs),
(262.932,1534.18,l),
(267.128,1534.92,l),
(346.128,1548.92,l),
(351.877,1549.94,l),
(351.999,1544.1,ls),
(354.994,1400.32,o),
(396.409,1334,o),
(473,1334,cs),
(543.235,1334,o),
(607.401,1374.98,o),
(664.716,1445.63,c),
(561.292,1482.83,o),
(484,1532.48,o),
(484,1629,cs)
);
},
{
closed = 1;
nodes = (
(719.747,1561.62,o),
(731,1596.98,o),
(731,1627,cs),
(731,1672.45,o),
(696.767,1706,o),
(656,1706,cs),
(608.243,1706,o),
(574,1674.37,o),
(574,1625,cs),
(574,1573.74,o),
(641.806,1546.37,o),
(706.093,1528.95,c)
);
}
);
width = 0;
}
);
unicode = 1612;
}
{
glyphname = "kasratan-ar";
layers = (
{
anchors = (
{
name = "Anchor-0";
pos = (595.022,-407.025);
},
{
name = "_Anchor-0";
pos = (545.278,32.711);
},
{
name = "_Anchor-6";
pos = (545.278,32.711);
},
{
name = "_Anchor-7";
pos = (545.278,32.711);
}
);
layerId = m001;
shapes = (
{
closed = 1;
nodes = (
(330,-342,l),
(330,-338.64,l),
(333.112,-337.37,l),
(789.112,-151.37,l),
(796,-148.561,l),
(796,-156,l),
(796,-260,l),
(796,-263.36,l),
(792.888,-264.63,l),
(336.888,-450.63,l),
(330,-453.439,l),
(330,-446,l)
);
},
{
closed = 1;
nodes = (
(330,-130,l),
(330,-126.64,l),
(333.112,-125.37,l),
(789.112,60.63,l),
(796,63.439,l),
(796,56,l),
(796,-48,l),
(796,-51.361,l),
(792.888,-52.63,l),
(336.888,-238.63,l),
(330,-241.439,l),
(330,-234,l)
);
}
);
width = 3;
}
);
unicode = 1613;
}
{
glyphname = "fatha-ar";
layers = (
{
anchors = (
{
name = "Anchor-1";
pos = (541.396,1651.77);
},
{
name = "_Anchor-1";
pos = (545.66,1397.63);
},
{
name = "_Anchor-10";
pos = (545.66,1397.63);
},
{
name = "_Anchor-9";
pos = (545.66,1397.63);
}
);
layerId = m001;
shapes = (
{
closed = 1;
nodes = (
(291,1453,l),
(291,1456.36,l),
(294.112,1457.63,l),
(750.112,1643.63,l),
(757,1646.44,l),
(757,1639,l),
(757,1535,l),
(757,1531.64,l),
(753.888,1530.37,l),
(297.888,1344.37,l),
(291,1341.56,l),
(291,1349,l)
);
}
);
width = 0;
}
);
unicode = 1614;
}
{
glyphname = "damma-ar";
layers = (
{
anchors = (
{
name = "Anchor-1";
pos = (542.134,1865.4);
},
{
name = "_Anchor-1";
pos = (591.295,1359.37);
},
{
name = "_Anchor-10";
pos = (591.295,1359.37);
},
{
name = "_Anchor-9";
pos = (591.295,1359.37);
}
);
layerId = m001;
shapes = (
{
closed = 1;
nodes = (
(695.826,1422,o),
(670.431,1423.92,o),
(645.255,1427.6,c),
(577.165,1335.96,o),
(418.626,1312.92,o),
(256.274,1304.01,cs),
(251,1303.72,l),
(251,1309,l),
(251,1387,l),
(251,1391.56,l),
(255.544,1391.98,ls),
(381.156,1403.49,o),
(505.909,1410.7,o),
(555.505,1451.98,c),
(465.44,1471.46,o),
(375,1532.12,o),
(375,1626,cs),
(375,1726.49,o),
(446.259,1793,o),
(543,1793,cs),
(640.04,1793,o),
(711,1725.99,o),
(711,1625,cs),
(711,1587.07,o),
(702.156,1548.08,o),
(687.025,1510.01,c),
(698.718,1508.33,o),
(710.693,1507,o),
(723,1507,cs),
(728,1507,l),
(728,1502,l),
(728,1427,l),
(728,1422,l),
(723,1422,ls)
);
},
{
closed = 1;
nodes = (
(610.747,1558.62,o),
(622,1593.98,o),
(622,1624,cs),
(622,1669.91,o),
(588.646,1702,o),
(547,1702,cs),
(498.752,1702,o),
(465,1671.64,o),
(465,1622,cs),
(465,1570.74,o),
(532.806,1543.37,o),
(597.093,1525.95,c)
);
}
);
width = 10;
}
);
unicode = 1615;
}
{
glyphname = "kasra-ar";
layers = (
{
anchors = (
{
name = "Anchor-0";
pos = (619.091,-324.624);
},
{
name = "_Anchor-0";
pos = (571.144,-44.824);
},
{
name = "_Anchor-6";
pos = (571.144,-44.824);
},
{
name = "_Anchor-7";
pos = (571.144,-44.824);
}
);
layerId = m001;
shapes = (
{
closed = 1;
nodes = (
(338,-242,l),
(338,-238.642,l),
(341.108,-237.372,l),
(796.108,-51.372,l),
(803,-48.554,l),
(803,-56,l),
(803,-159,l),
(803,-162.351,l),
(799.901,-163.625,l),
(344.901,-350.625,l),
(338,-353.461,l),
(338,-346,l)
);
}
);
width = 10;
}
);
unicode = 1616;
}
{
glyphname = "shadda-ar";
layers = (
{
anchors = (
{
name = "Anchor-1";
pos = (574,1868);
},
{
name = "_Anchor-1";
pos = (595,1445);
},
{
name = "_Anchor-10";
pos = (595,1445);
},
{
name = "_Anchor-9";
pos = (595,1445);
}
);
layerId = m001;
shapes = (
{
closed = 1;
nodes = (
(778.047,1732.24,o),
(775.74,1767.72,o),
(771.279,1795.59,cs),
(771.017,1797.22,l),
(771.781,1798.69,ls),
(776.768,1808.27,o),
(782.125,1815.47,o),
(788.294,1820.07,cs),
(804.713,1832.32,o),
(822.396,1822.57,o),
(838.282,1800.26,cs),
(838.995,1799.26,l),
(839.162,1798.04,ls),
(846.361,1745.77,o),
(849.847,1705.12,o),
(849.722,1677,cs),
(849.619,1545.71,o),
(802.967,1478.97,o),
(708.694,1478.9,cs),
(653.359,1478.96,o),
(613.434,1498.1,o),
(591.379,1533.86,c),
(567.891,1449.79,o),
(514.611,1407.11,o),
(433.066,1407.32,cs),
(345.013,1407.1,o),
(300.742,1465.63,o),
(300.206,1576.98,cs),
(300.067,1612.06,o),
(304.318,1655.81,o),
(312.913,1708.35,cs),
(313.081,1709.38,l),
(313.645,1710.25,ls),
(321.68,1722.72,o),
(329.544,1731.29,o),
(338.023,1735.44,cs),
(355.025,1743.76,o),
(369.468,1731.51,o),
(380.181,1708.76,cs),
(380.81,1707.42,l),
(380.612,1705.96,ls),
(374.192,1658.34,o),
(370.853,1626.95,o),
(370.596,1612.88,cs),
(370.859,1549.06,o),
(394.523,1520.06,o),
(441.623,1520.17,cs),
(501.742,1520.06,o),
(533.728,1559.92,o),
(537.05,1646.05,cs),
(538.348,1674.71,o),
(538.77,1713.63,o),
(538.313,1762.84,cs),
(538.297,1764.53,l),
(539.306,1765.88,ls),
(546.677,1775.75,o),
(553.86,1782.8,o),
(561.296,1786.81,cs),
(578.58,1796.13,o),
(593.874,1786.37,o),
(604.977,1765.01,cs),
(605.508,1763.99,l),
(605.538,1762.84,ls),
(606.507,1725.87,o),
(607.231,1705.6,o),
(607.429,1704.12,cs),
(607.474,1703.78,l),
(607.473,1703.43,ls),
(607.166,1631.78,o),
(638.262,1597.8,o),
(702.58,1597.43,cs),
(753.117,1597.16,o),
(778.049,1626.04,o),
(778.142,1689.26,cs)
);
}
);
width = 4;
}
);
unicode = 1617;
}
{
glyphname = "sukun-ar";
layers = (
{
anchors = (
{
name = "Anchor-1";
pos = (589.537,1682.66);
},
{
name = "_Anchor-1";
pos = (609.219,1271.43);
},
{
name = "_Anchor-10";
pos = (609.219,1271.43);
},
{
name = "_Anchor-9";
pos = (609.219,1271.43);
}
);
layerId = m001;
shapes = (
{
closed = 1;
nodes = (
(416,1560.75,o),
(495.248,1640,o),
(594,1640,cs),
(692.724,1640,o),
(773,1560.79,o),
(773,1462,cs),
(773,1363.24,o),
(692.763,1283,o),
(594,1283,cs),
(495.21,1283,o),
(416,1363.28,o),
(416,1462,cs)
);
},
{
closed = 1;
nodes = (
(646.171,1372,o),
(686,1412.71,o),
(686,1462,cs),
(686,1511.19,o),
(646.315,1550,o),
(597,1550,cs),
(548.328,1550,o),
(507.982,1510.13,o),
(507.982,1461.78,cs),
(507.982,1410.77,o),
(546.148,1372,o),
(597,1372,cs)
);
}
);
width = 7;
}
);
unicode = 1618;
}
{
glyphname = "madda-ar";
layers = (
{
anchors = (
{
name = "Anchor-1";
pos = (463.075,2038.87);
},
{
name = "_Anchor-1";
pos = (493.848,1585.79);
},
{
name = "_Anchor-10";
pos = (493.848,1585.79);
},
{
name = "_Anchor-9";
pos = (493.848,1585.79);
}
);
layerId = m001;
shapes = (
{
closed = 1;
nodes = (
(480.768,1664.54,o),
(442.857,1677.53,o),
(366.031,1677.53,cs),
(285.7,1677.53,o),
(243.203,1639.03,o),
(182.069,1584.58,c),
(158.347,1601.52,o),
(136.024,1621.38,o),
(120.262,1639.71,c),
(161.605,1755.93,o),
(215.21,1869.15,o),
(338.595,1869.15,cs),
(441.247,1869.15,o),
(507.4,1837.89,o),
(610.424,1837.89,cs),
(665.495,1837.89,o),
(738.044,1852.99,o),
(783.428,1866.58,cs),
(861.86,1890.07,o),
(880.512,1870.36,o),
(832.819,1808.23,cs),
(765.115,1720.03,o),
(699.629,1664.54,o),
(546.237,1664.54,cs)
);
}
);
width = 0;
}
);
unicode = 1619;
}
{
glyphname = "dammainverted-ar";
layers = (
{
anchors = (
{
name = "Anchor-1";
pos = (537.285,2069.85);
},
{
name = "_Anchor-1";
pos = (513.285,1400.55);
},
{
name = "_Anchor-10";
pos = (513.285,1400.55);
},
{
name = "_Anchor-9";
pos = (513.285,1400.55);
}
);
layerId = m001;
shapes = (
{
closed = 1;
nodes = (
(305,1804,o),
(348,1801,o),
(395,1796,c),
(396,1797,ls),
(496,1939,o),
(625,2018,o),
(785,2033,c),
(785,1955,l),
(662,1935,o),
(562,1876,o),
(486,1778,c),
(573.073,1752.52,o),
(658,1697.36,o),
(658,1599,cs),
(658,1507.71,o),
(593.06,1438,o),
(501,1438,cs),
(408.643,1438,o),
(332,1502.56,o),
(332,1603,cs),
(332,1632,o),
(339,1672,o),
(355,1722,c),
(328,1724,o),
(299,1726,o),
(265,1726,c),
(265,1805,l)
);
},
{
closed = 1;
nodes = (
(549.036,1516,o),
(577,1548.9,o),
(577,1597,cs),
(577,1658.29,o),
(503.06,1693.27,o),
(437,1709,c),
(419,1666,o),
(410,1632,o),
(410,1605,cs),
(410,1552.84,o),
(451.286,1516,o),
(501,1516,cs)
);
}
);
width = 4;
}
);
unicode = 1623;
}
{
glyphname = "vabove-ar";
layers = (
{
anchors = (
{
name = "Anchor-1";
pos = (571.012,1862.38);
},
{
name = "_Anchor-1";
pos = (573.285,1350.55);
},
{
name = "_Anchor-10";
pos = (573.285,1350.55);
},
{
name = "_Anchor-9";
pos = (573.285,1350.55);
}
);
layerId = m001;
shapes = (
{
closed = 1;
nodes = (
(309,1768,l),
(433,1768,l),
(573,1528,l),
(714,1768,l),
(838,1768,l),
(624,1444,l),
(522,1444,l)
);
}
);
width = 1135;
}
);
unicode = 1626;
}
{
glyphname = "zero-ar";
layers = (
{
layerId = m001;
shapes = (
{
closed = 1;
nodes = (
(711.289,548.706,l),
(444.191,281.607,l),
(182.494,543.306,l),
(449.592,810.403,l)
);
}
);
width = 895;
}
);
unicode = 1632;
}
{
glyphname = "one-ar";
layers = (
{
layerId = m001;
shapes = (
{
closed = 1;
nodes = (
(473,1111,o),
(546,742,o),
(546,330,cs),
(546,133,o),
(501,19,o),
(406,-6,c),
(405,380,o),
(322,792,o),
(122,1278,c),
(260,1460,ls),
(291,1499,o),
(309,1480,o),
(327,1439,cs)
);
}
);
width = 742;
}
);
unicode = 1633;
}
{
glyphname = "two-ar";
layers = (
{
layerId = m001;
shapes = (
{
closed = 1;
nodes = (
(528,721,o),
(545,531,o),
(545,321,cs),
(545,126,o),
(499,16,o),
(406,-6,c),
(406,18,ls),
(406,388,o),
(317,808,o),
(122,1278,c),
(260,1459,ls),
(292,1502,o),
(310,1480,o),
(332,1431,cs),
(397,1287,o),
(489,1219,o),
(614,1219,cs),
(780,1219,o),
(869,1278,o),
(881,1397,cs),
(888,1468,l),
(990,1453,l),
(987,1380,ls),
(974,1048,o),
(842,882,o),
(592,882,cs),
(563,882,o),
(532,884,o),
(497,887,c)
);
}
);
width = 1089;
}
);
unicode = 1634;
}
{
glyphname = "three-ar";
layers = (
{
layerId = m001;
shapes = (
{
closed = 1;
nodes = (
(260,1459,ls),
(287,1494,o),
(312,1487,o),
(324,1450,cs),
(376,1295,o),
(446,1219,o),
(536,1219,cs),
(645,1219,o),
(702,1259,o),
(707,1340,cs),
(713,1423,l),
(826,1420,l),
(832,1339,ls),
(838,1258,o),
(908,1216,o),
(977,1216,cs),
(1068,1216,o),
(1091,1292,o),
(1091,1409,cs),
(1091,1422,o),
(1090,1435,o),
(1090,1449,c),
(1204,1441,l),
(1205,1405,ls),
(1205,1389,o),
(1205,1374,o),
(1205,1359,cs),
(1205,1050,o),
(1118,894,o),
(942,894,cs),
(859,894,o),
(793,927,o),
(745,994,c),
(694,923,o),
(611,887,o),
(497,887,c),
(528,721,o),
(545,531,o),
(545,321,cs),
(545,126,o),
(499,16,o),
(406,-6,c),
(406,387,o),
(322,800,o),
(122,1278,c)
);
}
);
width = 1275;
}
);
unicode = 1635;
}
{
glyphname = "four-ar";
layers = (
{
layerId = m001;
shapes = (
{
closed = 1;
nodes = (
(137,371,o),
(240,502,o),
(432,642,c),
(385,681,o),
(337,718,o),
(286,754,cs),
(178,831,o),
(124,903,o),
(124,970,cs),
(124,1074,o),
(209,1173,o),
(380,1265,cs),
(446,1301,o),
(529,1338,o),
(627,1379,cs),
(649,1388,o),
(666,1393,o),
(680,1393,cs),
(709,1393,o),
(720,1372,o),
(720,1344,cs),
(720,1339,o),
(720,1333,o),
(719,1327,cs),
(711,1273,o),
(695,1184,o),
(671,1059,c),
(533,1052,o),
(447,1043,o),
(412,1031,cs),
(397,1026,o),
(390,1022,o),
(389,1019,cs),
(387,1007,o),
(399,992,o),
(425,974,cs),
(579,860,o),
(664,778,o),
(682,727,cs),
(684,721,o),
(686,714,o),
(686,707,cs),
(686,659,o),
(632,594,o),
(523,511,cs),
(471,471,o),
(423,428,o),
(379,383,cs),
(334,336,o),
(312,314,o),
(312,304,cs),
(312,285,o),
(350,280,o),
(380,280,cs),
(454,280,o),
(605,300,o),
(832,338,cs),
(854,342,l),
(849,88,ls),
(848,48,o),
(827,25,o),
(795,23,cs),
(735,17,o),
(678,15,o),
(621,15,cs),
(594,15,o),
(568,15,o),
(542,16,cs),
(272,29,o),
(137,104,o),
(137,237,cs)
);
}
);
width = 978;
}
);
unicode = 1636;
}
{
glyphname = "five-ar";
layers = (
{
layerId = m001;
shapes = (
{
closed = 1;
nodes = (
(331,737,o),
(242,590,o),
(242,498,cs),
(242,379.745,o),
(357.507,333,o),
(509,333,cs),
(650.89,333,o),
(812,384.384,o),
(812,495,cs),
(812,604,o),
(707,753,o),
(508,939,c)
);
},
{
closed = 1;
nodes = (
(232,13,o),
(97,177,o),
(97,462,cs),
(97,463,ls),
(97,463,ls),
(97,617,o),
(188,813,o),
(371,1050,c),
(291,1111,l),
(442,1423,l),
(459,1407,ls),
(797,1091,o),
(966,786,o),
(966,491,cs),
(966,181,o),
(814,13,o),
(507,13,cs)
);
}
);
width = 1062;
}
);
unicode = 1637;
}
{
glyphname = "six-ar";
layers = (
{
layerId = m001;
shapes = (
{
closed = 1;
nodes = (
(995,743,o),
(1066,352,o),
(1195,216,cs),
(1205,206,l),
(1052,-14,l),
(1035,3,ls),
(966,73,o),
(912,185,o),
(872,340,cs),
(832,495,o),
(809,761,o),
(802,1138,c),
(679,1051,o),
(557,1018,o),
(433,1018,cs),
(342,1018,o),
(250,1032,o),
(158,1079,cs),
(118,1100,o),
(97,1275,o),
(97,1363,cs),
(97,1420,o),
(101,1453,o),
(149,1435,cs),
(278,1386,o),
(435,1362,o),
(620,1362,cs),
(730,1362,o),
(851,1371,o),
(981,1388,c)
);
}
);
width = 1380;
}
);
unicode = 1638;
}
{
glyphname = "seven-ar";
layers = (
{
layerId = m001;
shapes = (
{
closed = 1;
nodes = (
(202,1469,l),
(225,1493,o),
(244,1479,o),
(258,1458,cs),
(387,1233,o),
(497,917,o),
(592,510,c),
(685,889,o),
(804,1207,o),
(948,1463,cs),
(968,1498,o),
(991,1495,o),
(1003,1467,cs),
(1109,1223,l),
(845,759,o),
(687,351,o),
(635,2,c),
(538,2,l),
(485,362,o),
(327,769,o),
(63,1222,c)
);
}
);
width = 1182;
}
);
unicode = 1639;
}
{
glyphname = "eight-ar";
layers = (
{
layerId = m001;
shapes = (
{
closed = 1;
nodes = (
(327,713,o),
(485,1119,o),
(538,1479,c),
(645,1479,l),
(697,1130,o),
(855,723,o),
(1119,258,c),
(1003,14,ls),
(990.034,-15.174,o),
(965.26,-13.643,o),
(948,18,cs),
(801,287,o),
(682,605,o),
(592,971,c),
(500,572,o),
(389,257,o),
(258,23,cs),
(250,8,o),
(240,0,o),
(229,0,cs),
(219,0,o),
(209,3,o),
(202,11,c),
(63,259,l)
);
}
);
width = 1182;
}
);
unicode = 1640;
}
{
glyphname = "nine-ar";
layers = (
{
layerId = m001;
shapes = (
{
closed = 1;
nodes = (
(224.837,700,o),
(122.993,801.188,o),
(122.993,985.535,cs),
(122.993,1218.93,o),
(271.122,1480,o),
(445,1480,cs),
(700.321,1480,o),
(768.981,1210.3,o),
(787,922,cs),
(813,513,o),
(863,275,o),
(936,206,c),
(947,195,l),
(824,-13,l),
(806,2,ls),
(761,40,o),
(724,97,o),
(694,171,cs),
(650,278,o),
(623,453,o),
(614,725,c),
(539,708,o),
(472,700,o),
(413,700,cs)
);
},
{
closed = 1;
nodes = (
(261,1004,o),
(355,988,o),
(417,988,cs),
(466,988,o),
(523,993,o),
(589,1003,c),
(573,1124,o),
(538,1204,o),
(414,1204,cs),
(321,1204,o),
(261,1112,o),
(261,1054,cs)
);
}
);
width = 1057;
}
);
unicode = 1641;
}
{
glyphname = "percent-ar";
layers = (
{
layerId = m001;
shapes = (
{
closed = 1;
nodes = (
(123,1152,o),
(184,1213,o),
(259,1213,cs),
(334,1213,o),
(396,1152,o),
(396,1077,cs),
(396,1002,o),
(334,940,o),
(259,940,cs),
(184,940,o),
(123,1002,o),
(123,1077,cs)
);
},
{
closed = 1;
nodes = (
(584,335,o),
(645,396,o),
(720,396,cs),
(795,396,o),
(857,335,o),
(857,260,cs),
(857,185,o),
(795,123,o),
(720,123,cs),
(645,123,o),
(584,185,o),
(584,260,cs)
);
},
{
closed = 1;
nodes = (
(893.777,1370.54,l),
(260.575,-18,l),
(73.816,-18,l),
(717.508,1370.67,l)
);
}
);
width = 970;
}
);
unicode = 1642;
}
{
glyphname = "decimalseparator-ar";
layers = (
{
layerId = m001;
shapes = (
{
closed = 1;
nodes = (
(807.515,602.972,l),
(236.417,-429.224,l),
(46.217,-429.224,l),
(619.617,603.107,l)
);
}
);
width = 873;
}
);
unicode = 1643;
}
{
glyphname = "thousandseparator-ar";
layers = (
{
layerId = m001;
shapes = (
{
closed = 1;
nodes = (
(360,253,o),
(406,193,o),
(406,84,cs),
(406,-35,o),
(358,-207,o),
(177,-321,cs),
(138,-345,o),
(66,-323,o),
(108,-290,cs),
(187,-232,o),
(247,-125,o),
(248,-45,c),
(141,4,o),
(120,31,o),
(120,100,cs),
(120,191,o),
(167,253,o),
(260,253,cs)
);
}
);
width = 530;
}
);
unicode = 1644;
}
{
glyphname = "behDotless-ar";
layers = (
{
anchors = (
{
name = "Anchor-10";
pos = (945.449,1132.82);
},
{
name = "Anchor-7";
pos = (872.857,-254.311);
}
);
layerId = m001;
shapes = (
{
closed = 1;
nodes = (
(351.867,-57,o),
(96.988,55.126,o),
(96.988,396.01,cs),
(96.988,520.933,o),
(136.178,638.755,o),
(213,755,c),
(304,718,l),
(267.676,628.199,o),
(249.996,560.041,o),
(249.996,508.694,cs),
(249.996,332.715,o),
(449.003,275,o),
(855,275,cs),
(1093,275,o),
(1594,290,o),
(1594,388,cs),
(1594,431,o),
(1523,544,o),
(1469,613,c),
(1593,832,ls),
(1619.97,880.913,o),
(1630,882,o),
(1658,838,cs),
(1735,715,o),
(1761,597,o),
(1761,450,cs),
(1761,-9,o),
(1269,-57,o),
(832,-57,cs)
);
}
);
width = 1845;
}
);
unicode = 1646;
}
{
glyphname = "qafDotless-ar";
layers = (
{
anchors = (
{
name = "Anchor-10";
pos = (585.921,1202.72);
},
{
name = "Anchor-7";
pos = (606.921,-670.829);
}
);
layerId = m001;
shapes = (
{
closed = 1;
nodes = (
(1298,-228,o),
(1064,-469,o),
(653,-469,cs),
(314,-469,o),
(97,-346,o),
(97,-31,cs),
(97,87,o),
(133,227,o),
(204,391,c),
(294,353,l),
(259,265,o),
(239,206,o),
(239,111,cs),
(239,-85,o),
(404,-157,o),
(659,-157,cs),
(924,-157,o),
(1089,-103,o),
(1164,3,c),
(1172.26,49.289,o),
(1172.94,82.897,o),
(1167,139,c),
(1116,124,o),
(1037,114,o),
(948,114,cs),
(783,114,o),
(705,189,o),
(705,345,cs),
(705,559,o),
(802,784,o),
(983,784,cs),
(1221,784,o),
(1298,457,o),
(1298,207,cs)
);
},
{
closed = 1;
nodes = (
(836,368,o),
(925,364,o),
(967,364,cs),
(1022,364,o),
(1072,373,o),
(1146,391,c),
(1090,487,o),
(1040,535,o),
(968,535,cs),
(900,535,o),
(836,477,o),
(836,404,cs)
);
}
);
width = 1383;
}
);
unicode = 1647;
}
{
glyphname = "alefabove-ar";
layers = (
{
anchors = (
{
name = "Anchor-1";
pos = (756.758,2355.27);
},
{
name = "_Anchor-1";
pos = (768.713,1776.23);
},
{
name = "_Anchor-10";
pos = (768.713,1776.23);
},
{
name = "_Anchor-9";
pos = (768.713,1776.23);
}
);
layerId = m001;
shapes = (
{
closed = 1;
nodes = (
(701.848,2198,l),
(701.462,2201.09,l),
(704.063,2202.8,l),
(790.254,2259.45,l),
(790.357,2259.51,l),
(790.463,2259.58,ls),
(795.77,2262.7,o),
(800.605,2264.64,o),
(805.316,2264.83,cs),
(817.588,2265.32,o),
(821.948,2253.65,o),
(821.948,2240,cs),
(821.948,1859.79,l),
(821.948,1856.19,l),
(818.526,1855.05,l),
(753.483,1833.41,l),
(747.701,1831.49,l),
(746.944,1837.54,l)
);
}
);
width = 0;
}
);
unicode = 1648;
}
{
glyphname = "highhamza-ar";
layers = (
{
layerId = m001;
shapes = (
{
closed = 1;
nodes = (
(214,2257.72,o),
(303.139,2375,o),
(412,2375,cs),
(492.245,2375,o),
(550.068,2330.2,o),
(586.596,2244.97,cs),
(587.598,2242.63,l),
(586.298,2240.44,l),
(564.298,2203.44,l),
(562.012,2199.6,l),
(557.937,2201.45,ls),
(505.318,2225.27,o),
(460.908,2237,o),
(426,2237,cs),
(371.924,2237,o),
(292,2206.51,o),
(292,2154,cs),
(292,2096.29,o),
(368.804,2048,o),
(450,2048,cs),
(481.921,2048,o),
(501.955,2056.57,o),
(549.242,2074.68,cs),
(568.526,2081.79,o),
(583.754,2086,o),
(595,2086,cs),
(608.645,2086,o),
(618,2079.06,o),
(618,2066,cs),
(618,2058.92,o),
(615.687,2050.19,o),
(610.486,2039.79,cs),
(564.5,1944.82,l),
(563.399,1942.55,l),
(560.914,1942.08,ls),
(448.788,1921.25,o),
(346.333,1872.58,o),
(212.442,1797.64,cs),
(203.599,1792.69,l),
(205.052,1802.72,l),
(226.052,1947.72,l),
(226.433,1950.35,l),
(228.831,1951.51,ls),
(252.86,1963.07,o),
(278.572,1975.5,o),
(302.807,1987.86,c),
(243.508,2018.31,o),
(214,2063.13,o),
(214,2123,cs)
);
}
);
width = 794;
}
);
unicode = 1652;
}
{
glyphname = "fehDotless-ar";
layers = (
{
anchors = (
{
name = "Anchor-10";
pos = (762.887,1489.57);
},
{
name = "Anchor-7";
pos = (545.732,-261.4);
}
);
layerId = m001;
shapes = (
{
closed = 1;
nodes = (
(1342.84,275,o),
(1509.65,282.152,o),
(1517,470,c),
(1466,455,o),
(1397,445,o),
(1308,445,cs),
(1143,445,o),
(1065,520,o),
(1065,676,cs),
(1065,889.802,o),
(1161.64,1115.01,o),
(1343.1,1115.01,cs),
(1581.13,1115.01,o),
(1658,787.622,o),
(1658,538,cs),
(1658,18.835,o),
(1497.09,-57,o),
(832,-57,cs),
(351.867,-57,o),
(96.988,55.126,o),
(96.988,396.01,cs),
(96.988,520.933,o),
(136.178,638.755,o),
(213,755,c),
(304,718,l),
(267.676,628.199,o),
(249.996,560.041,o),
(249.996,508.694,cs),
(249.996,332.715,o),
(449.003,275,o),
(855,275,cs)
);
},
{
closed = 1;
nodes = (
(1196,699,o),
(1285,695,o),
(1327,695,cs),
(1382,695,o),
(1432,704,o),
(1506,722,c),
(1450,818,o),
(1400,866,o),
(1328,866,cs),
(1259.89,866,o),
(1196,808.049,o),
(1196,735,cs)
);
}
);
width = 1748;
}
);
unicode = 1697;
}
{
glyphname = "keheh-ar";
layers = (
{
anchors = (
{
name = "Anchor-10";
pos = (1195.31,1454.92);
},
{
name = "Anchor-7";
pos = (876.157,-267.146);
}
);
layerId = m001;
shapes = (
{
closed = 1;
nodes = (
(1616.79,819.485,o),
(1751.09,630.872,o),
(1751.09,437.748,cs),
(1751.09,54.938,o),
(1289.68,-57,o),
(832,-57,cs),
(351.867,-57,o),
(96.988,55.126,o),
(96.988,396.01,cs),
(96.988,520.933,o),
(136.178,638.755,o),
(213,755,c),
(304,718,l),
(267.676,628.199,o),
(249.996,560.041,o),
(249.996,508.694,cs),
(249.996,332.715,o),
(449.003,275,o),
(855,275,cs),
(1130.53,275,o),
(1606.78,288.627,o),
(1606.78,444.978,cs),
(1606.78,537.083,o),
(1284.48,795.417,o),
(1073,940,cs),
(1054,954,o),
(1044,978,o),
(1044,997,cs),
(1044,1001,o),
(1045,1006,o),
(1046,1010,cs),
(1104,1204,ls),
(1110,1225,o),
(1121,1238,o),
(1133,1243,cs),
(1899,1568,ls),
(1925,1579,o),
(1930,1568,o),
(1925,1539,cs),
(1888,1319,l),
(1308,1078,l)
);
}
);
width = 1985;
}
);
unicode = 1705;
}
{
glyphname = "gaf-ar";
layers = (
{
anchors = (
{
name = "Anchor-10";
pos = (1303.36,1591.03);
},
{
name = "Anchor-7";
pos = (876.157,-267.146);
}
);
layerId = m001;
shapes = (
{
closed = 1;
nodes = (
(1052,884,o),
(1042,908,o),
(1042,927,cs),
(1042,931,o),
(1043,936,o),
(1044,940,cs),
(1102,1134,ls),
(1108,1155,o),
(1119,1168,o),
(1131,1173,cs),
(1897,1498,ls),
(1923,1509,o),
(1928,1498,o),
(1923,1469,cs),
(1886,1249,l),
(1306,1008,l),
(1524,869.1,o),
(1751.09,650.872,o),
(1751.09,437.748,cs),
(1751.09,54.938,o),
(1289.68,-57,o),
(832,-57,cs),
(351.867,-57,o),
(96.988,55.126,o),
(96.988,396.01,cs),
(96.988,520.933,o),
(136.178,638.755,o),
(213,755,c),
(304,718,l),
(267.676,628.199,o),
(249.996,560.041,o),
(249.996,508.694,cs),
(249.996,332.715,o),
(449.003,275,o),
(855,275,cs),
(1130.53,275,o),
(1606.78,288.627,o),
(1606.78,444.978,cs),
(1606.78,537.083,o),
(1282.48,725.417,o),
(1071,870,cs)
);
},
{
pos = (1045,-777);
ref = arabic_gaf_bar;
scale = (1.1342,1.1342);
}
);
width = 2005;
}
);
unicode = 1711;
}
{
glyphname = "noonghunna-ar";
layers = (
{
layerId = m001;
shapes = (
{
closed = 1;
nodes = (
(303.31,-490.01,o),
(93,-361.565,o),
(93,-60,cs),
(93,64,o),
(129,208,o),
(200,371,c),
(290,333,l),
(253,241,o),
(235,160,o),
(235,91,cs),
(235,-104.586,o),
(410.442,-179,o),
(642,-179,cs),
(871,-179,o),
(1066,-114,o),
(1165,7,c),
(1110,160,o),
(1044,309,o),
(967,434,c),
(1085.11,640.05,ls),
(1101.1,667.943,o),
(1114.33,682,o),
(1123,682,cs),
(1129.67,682,o),
(1139,672,o),
(1151,652,cs),
(1250.93,485.233,o),
(1291.11,334.707,o),
(1291.11,141.297,cs),
(1291.11,-279.849,o),
(1027.48,-490.01,o),
(645.773,-490.01,cs)
);
}
);
width = 1380;
}
);
unicode = 1722;
}
{
glyphname = "zeroFarsi-ar";
layers = (
{
layerId = m001;
shapes = (
{
closed = 1;
nodes = (
(334,481,o),
(384,431,o),
(447,431,cs),
(510,431,o),
(560,481,o),
(560,544,cs),
(560,607,o),
(510,657,o),
(447,657,cs),
(384,657,o),
(334,607,o),
(334,544,cs)
);
},
{
closed = 1;
nodes = (
(170,697,o),
(294,821,o),
(447,821,cs),
(600,821,o),
(724,697,o),
(724,544,cs),
(724,391,o),
(600,267,o),
(447,267,cs),
(294,267,o),
(170,391,o),
(170,544,cs)
);
}
);
width = 895;
}
);
unicode = 1776;
}
{
glyphname = "fourFarsi-ar";
layers = (
{
layerId = m001;
shapes = (
{
closed = 1;
nodes = (
(659.605,1038.02,o),
(740.768,1011.29,o),
(829.315,1011.29,cs),
(895.169,1011.29,o),
(974.274,1026.21,o),
(1066.63,1056.05,c),
(1100.25,999.274,l),
(1042.72,841.49,o),
(941.181,762.598,o),
(795.649,762.598,cs),
(673.485,762.598,o),
(574.368,804.91,o),
(497.072,886.884,c),
(527.959,720.855,o),
(545.318,530.987,o),
(545.318,320.642,cs),
(545.318,125.281,o),
(498.724,16.53,o),
(405.536,-5.61,c),
(405.521,18.479,ls),
(405.174,383.493,o),
(317.188,803.167,o),
(122,1278,c),
(260,1459,ls),
(278,1483,o),
(308.108,1496.61,o),
(323.282,1450.96,cs),
(357.674,1347.49,ls),
(391.225,1247.16,o),
(444.661,1177.66,o),
(517.983,1138.99,c),
(541.298,1346.73,o),
(632.551,1450.6,o),
(791.743,1450.6,cs),
(912.902,1450.5,o),
(994.861,1389.39,o),
(1039.13,1264.64,c),
(1002.8,1217.44,l),
(934.146,1243.22,o),
(875.55,1256.12,o),
(827.007,1256.12,cs),
(729.105,1256.12,o),
(659.605,1194.37,o),
(659.605,1115.25,cs)
);
}
);
width = 1187;
}
);
unicode = 1780;
}
{
glyphname = "fiveFarsi-ar";
layers = (
{
layerId = m001;
shapes = (
{
closed = 1;
nodes = (
(428.426,308.796,o),
(492.127,375.286,o),
(524.472,506.223,c),
(606.419,504.354,l),
(617.857,456.407,o),
(669.477,308.784,o),
(809.734,308.784,cs),
(881.421,308.784,o),
(908.804,342.022,o),
(908.804,412.6,cs),
(908.804,554.259,o),
(780.441,791.488,o),
(530.919,1050.96,c),
(331.356,746.741,o),
(240.775,550.791,o),
(240.775,424.006,cs),
(240.775,347.2,o),
(271.398,308.796,o),
(332.645,308.796,cs)
);
},
{
closed = 1;
nodes = (
(152.456,2.633,o),
(74.85,112.501,o),
(74.85,328.181,cs),
(74.85,513.181,o),
(176.792,809.562,o),
(420,1178,c),
(374.121,1219.28,l),
(474.468,1423.19,ls),
(498.782,1472.6,o),
(508.001,1462.05,o),
(540.328,1429.79,cs),
(821.736,1149.19,o),
(1056.11,774.984,o),
(1056.11,372.39,cs),
(1056.11,176.541,o),
(1002.6,2.993,o),
(820.521,3.058,cs),
(710.84,3.02,o),
(626.686,70.222,o),
(568.056,184.664,c),
(513.226,69.96,o),
(424.864,2.633,o),
(302.323,2.633,cs)
);
}
);
width = 1133;
}
);
unicode = 1781;
}
{
glyphname = "sixFarsi-ar";
layers = (
{
layerId = m001;
shapes = (
{
closed = 1;
nodes = (
(692,1233,o),
(644,1243,o),
(559,1243,cs),
(449.25,1243,o),
(315,1133.1,o),
(315,1073,cs),
(315,1069,o),
(316,1067,o),
(318,1064,cs),
(365,1021,o),
(469,999,o),
(627,999,cs),
(691,999,o),
(710,1005,o),
(802,1043,cs),
(872,1072,o),
(912.652,1083.97,o),
(924,1088,cs),
(986,1110,o),
(993.185,1077.9,o),
(972,1013,cs),
(903,802,l),
(590.725,614.532,o),
(411.495,402.103,o),
(177.146,-6.307,c),
(70,166,o),
(351,657,o),
(474,770,c),
(278,827,o),
(175,927,o),
(175,1066,cs),
(175,1239.78,o),
(348.025,1480,o),
(550,1480,cs),
(682,1480,o),
(773,1403,o),
(837,1264,c),
(781,1200,l)
);
}
);
width = 1075;
}
);
unicode = 1782;
}
{
glyphname = "parenleft-ar";
layers = (
{
layerId = m001;
shapes = (
{
closed = 1;
nodes = (
(836.173,689.135,o),
(834.846,696.339,o),
(832.191,702.736,cs),
(829.536,709.134,o),
(825.362,715.179,o),
(819.668,720.872,cs),
(813.975,726.565,o),
(807.93,730.74,o),
(801.533,733.395,cs),
(795.135,736.049,o),
(787.932,737.376,o),
(779.922,737.376,cs),
(777.626,737.376,o),
(775.41,737.27,o),
(773.274,737.059,cs),
(771.138,736.847,o),
(769.058,736.527,o),
(767.033,736.098,cs),
(765.01,735.668,o),
(763.045,735.124,o),
(761.14,734.466,cs),
(759.235,733.808,o),
(757.375,733.036,o),
(755.562,732.151,cs),
(753.747,731.266,o),
(751.971,730.257,o),
(750.232,729.125,cs),
(748.495,727.992,o),
(746.792,726.742,o),
(745.125,725.374,cs),
(743.458,724.006,o),
(741.807,722.505,o),
(740.174,720.872,cs),
(734.481,715.179,o),
(730.308,709.133,o),
(727.653,702.736,cs),
(724.999,696.339,o),
(723.672,689.135,o),
(723.672,681.125,cs),
(723.672,673.114,o),
(724.999,665.91,o),
(727.653,659.513,cs),
(730.308,653.116,o),
(734.482,647.071,o),
(740.174,641.378,cs),
(745.868,635.685,o),
(751.913,631.511,o),
(758.311,628.856,cs),
(764.708,626.202,o),
(771.912,624.875,o),
(779.922,624.875,cs),
(795.417,624.875,o),
(808.666,630.376,o),
(819.669,641.378,cs),
(830.672,652.38,o),
(836.173,665.629,o),
(836.173,681.125,cs)
);
},
{
closed = 1;
nodes = (
(988.077,652.67,o),
(982.947,626.064,o),
(972.686,601.309,cs),
(962.424,576.553,o),
(947.223,554.105,o),
(927.083,533.965,cs),
(886.42,493.301,o),
(837.366,472.969,o),
(779.922,472.969,cs),
(751.467,472.969,o),
(724.861,478.1,o),
(700.105,488.361,cs),
(675.35,498.623,o),
(652.901,513.824,o),
(632.761,533.965,cs),
(612.619,554.105,o),
(597.419,576.553,o),
(587.158,601.309,cs),
(576.896,626.064,o),
(571.766,652.67,o),
(571.766,681.125,cs),
(571.766,738.569,o),
(592.097,787.623,o),
(632.761,828.287,cs),
(646.174,841.699,o),
(660.635,852.934,o),
(676.143,861.991,cs),
(691.651,871.048,o),
(708.087,877.86,o),
(725.45,882.429,cs),
(742.813,886.996,o),
(760.971,889.28,o),
(779.922,889.28,cs),
(808.378,889.28,o),
(834.983,884.15,o),
(859.738,873.89,cs),
(884.493,863.628,o),
(906.941,848.427,o),
(927.082,828.286,cs),
(947.223,808.145,o),
(962.424,785.697,o),
(972.686,760.941,cs),
(982.947,736.186,o),
(988.077,709.581,o),
(988.077,681.125,cs)
);
},
{
closed = 1;
nodes = (
(785.922,13.252,o),
(862.23,-139.992,o),
(970.27,-249.328,c),
(914.195,-125.404,o),
(870.814,25.947,o),
(840.127,204.726,cs),
(837.986,217.201,o),
(838.738,229.175,o),
(842.384,240.647,cs),
(846.03,252.119,o),
(852.327,262.331,o),
(861.277,271.283,cs),
(903.475,313.479,ls),
(918.306,328.31,o),
(936.208,335.725,o),
(957.182,335.725,cs),
(1132.98,335.725,l),
(1132.98,511.53,ls),
(1132.98,532.505,o),
(1140.4,550.407,o),
(1155.23,565.236,cs),
(1279.54,689.548,l),
(1155.23,813.858,ls),
(1140.4,828.689,o),
(1132.98,846.591,o),
(1132.98,867.565,cs),
(1132.98,1043.37,l),
(957.182,1043.37,ls),
(936.208,1043.37,o),
(918.306,1050.79,o),
(903.474,1065.62,cs),
(858.183,1110.91,ls),
(839.907,1129.18,o),
(832.808,1151.08,o),
(836.888,1176.6,cs),
(853.25,1278.97,o),
(873.711,1373.32,o),
(898.271,1459.67,cs),
(922.831,1546.01,o),
(951.432,1624.15,o),
(984.074,1694.09,c),
(859.342,1573.4,o),
(774.905,1395.46,o),
(730.762,1160.28,cs),
(730.053,1156.5,o),
(729.073,1152.82,o),
(727.82,1149.22,cs),
(726.569,1145.63,o),
(725.065,1142.17,o),
(723.31,1138.84,cs),
(721.553,1135.51,o),
(719.545,1132.31,o),
(717.284,1129.25,cs),
(715.023,1126.19,o),
(712.535,1123.3,o),
(709.818,1120.58,cs),
(654.852,1065.62,ls),
(640.021,1050.79,o),
(622.119,1043.37,o),
(601.145,1043.37,cs),
(425.341,1043.37,l),
(425.341,867.565,ls),
(425.341,846.591,o),
(417.925,828.689,o),
(403.095,813.859,cs),
(278.783,689.548,l),
(403.095,565.237,ls),
(417.925,550.407,o),
(425.341,532.505,o),
(425.341,511.53,cs),
(425.341,335.725,l),
(601.145,335.725,ls),
(622.119,335.725,o),
(640.021,328.31,o),
(654.851,313.479,cs),
(720.972,247.36,ls),
(731.326,237.006,o),
(738.118,224.687,o),
(741.347,210.404,cs)
);
},
{
closed = 1;
nodes = (
(569.684,183.82,l),
(349.39,183.82,ls),
(345.663,183.82,o),
(341.955,184.133,o),
(338.265,184.758,cs),
(334.574,185.383,o),
(330.99,186.287,o),
(327.513,187.468,cs),
(324.036,188.649,o),
(320.606,190.105,o),
(317.224,191.836,cs),
(313.841,193.566,o),
(310.578,195.523,o),
(307.434,197.705,cs),
(304.29,199.887,o),
(301.223,202.305,o),
(298.232,204.96,cs),
(292.916,209.68,o),
(288.41,214.93,o),
(284.713,220.711,cs),
(281.017,226.493,o),
(278.214,232.681,o),
(276.303,239.275,cs),
(274.392,245.87,o),
(273.437,252.702,o),
(273.437,259.772,cs),
(273.437,480.069,l),
(117.664,635.841,ls),
(112.511,640.994,o),
(108.185,647.117,o),
(104.685,654.209,cs),
(101.185,661.301,o),
(98.234,669.451,o),
(95.834,678.658,cs),
(89.938,701.273,o),
(97.215,722.805,o),
(117.664,743.254,cs),
(273.437,899.027,l),
(273.437,1119.32,ls),
(273.437,1137.55,o),
(280.483,1154.61,o),
(294.577,1170.48,cs),
(309.254,1187.01,o),
(327.525,1195.28,o),
(349.39,1195.28,cs),
(569.684,1195.28,l),
(585.991,1211.58,l),
(671.776,1636.65,o),
(881.738,1898.51,o),
(1215.88,1997.16,cs),
(1224.58,2000.34,o),
(1232.82,2001.73,o),
(1240.6,2001.34,cs),
(1248.38,2000.94,o),
(1255.59,1998.94,o),
(1262.23,1995.33,cs),
(1268.88,1991.73,o),
(1274.82,1986.82,o),
(1280.05,1980.61,cs),
(1285.29,1974.39,o),
(1289.72,1967.06,o),
(1293.34,1958.61,cs),
(1301.07,1940.6,o),
(1301.61,1913.97,o),
(1294.95,1878.74,cs),
(1293.76,1872.48,l),
(1289.03,1868.2,ls),
(1148.99,1741.5,o),
(1050.66,1517.19,o),
(994.042,1195.28,c),
(1208.94,1195.28,ls),
(1218.13,1195.28,o),
(1227.06,1193.44,o),
(1235.7,1189.77,cs),
(1244.35,1186.11,o),
(1252.48,1180.89,o),
(1260.09,1174.14,cs),
(1276.62,1159.46,o),
(1284.89,1141.19,o),
(1284.89,1119.32,cs),
(1284.89,899.027,l),
(1440.67,743.253,ls),
(1450.28,733.634,o),
(1457.56,719.361,o),
(1462.49,700.436,cs),
(1465.48,688.984,o),
(1464.96,677.726,o),
(1460.93,666.659,cs),
(1456.9,655.592,o),
(1450.14,645.319,o),
(1440.66,635.84,cs),
(1284.89,480.069,l),
(1284.89,259.772,ls),
(1284.89,250.575,o),
(1283.06,241.652,o),
(1279.39,233.005,cs),
(1275.72,224.357,o),
(1270.51,216.228,o),
(1263.75,208.616,cs),
(1249.07,192.086,o),
(1230.8,183.82,o),
(1208.94,183.82,cs),
(998.271,183.82,l),
(1056.08,-119.324,o),
(1151.89,-324.745,o),
(1285.7,-432.443,cs),
(1300.63,-444.461,o),
(1307.93,-458.565,o),
(1307.6,-474.756,cs),
(1306.94,-507.05,o),
(1281.35,-536.487,o),
(1230.83,-563.066,cs),
(1224.02,-566.648,l),
(1216.64,-564.478,ls),
(897.394,-470.58,o),
(691.255,-230.662,o),
(598.225,155.278,c)
);
}
);
width = 1557;
}
);
unicode = 64830;
}
{
glyphname = "parenright-ar";
layers = (
{
layerId = m001;
shapes = (
{
closed = 1;
nodes = (
(722.153,673.114,o),
(723.48,665.91,o),
(726.135,659.513,cs),
(728.79,653.116,o),
(732.964,647.071,o),
(738.656,641.378,cs),
(744.35,635.685,o),
(750.395,631.511,o),
(756.793,628.856,cs),
(763.191,626.202,o),
(770.395,624.875,o),
(778.405,624.875,cs),
(793.901,624.875,o),
(807.15,630.376,o),
(818.152,641.378,cs),
(829.155,652.38,o),
(834.656,665.629,o),
(834.656,681.125,cs),
(834.656,696.62,o),
(829.155,709.869,o),
(818.151,720.872,cs),
(807.149,731.875,o),
(793.901,737.376,o),
(778.405,737.376,cs),
(775.188,737.376,o),
(772.122,737.167,o),
(769.209,736.75,cs),
(766.296,736.334,o),
(763.487,735.701,o),
(760.782,734.85,cs),
(758.076,733.999,o),
(755.466,732.915,o),
(752.951,731.6,cs),
(750.436,730.285,o),
(747.997,728.74,o),
(745.634,726.965,cs),
(743.27,725.191,o),
(740.944,723.16,o),
(738.656,720.872,cs),
(727.654,709.869,o),
(722.153,696.62,o),
(722.153,681.125,cs)
);
},
{
closed = 1;
nodes = (
(570.248,692.495,o),
(571.073,703.591,o),
(572.722,714.412,cs),
(574.371,725.234,o),
(576.838,735.736,o),
(580.12,745.918,cs),
(583.402,756.099,o),
(587.485,765.95,o),
(592.369,775.471,cs),
(597.254,784.991,o),
(602.942,794.162,o),
(609.435,802.983,cs),
(615.926,811.805,o),
(623.196,820.24,o),
(631.244,828.287,cs),
(651.385,848.427,o),
(673.833,863.628,o),
(698.589,873.89,cs),
(723.345,884.15,o),
(749.95,889.28,o),
(778.405,889.28,cs),
(792.617,889.28,o),
(806.396,887.991,o),
(819.743,885.411,cs),
(833.091,882.832,o),
(845.918,878.992,o),
(858.225,873.891,cs),
(870.531,868.79,o),
(882.316,862.428,o),
(893.58,854.807,cs),
(904.844,847.184,o),
(915.506,838.344,o),
(925.564,828.286,cs),
(945.706,808.145,o),
(960.907,785.697,o),
(971.168,760.941,cs),
(981.43,736.186,o),
(986.561,709.581,o),
(986.561,681.125,cs),
(986.561,662.174,o),
(984.276,644.017,o),
(979.708,626.654,cs),
(975.14,609.29,o),
(968.328,592.854,o),
(959.271,577.347,cs),
(950.213,561.838,o),
(938.978,547.378,o),
(925.565,533.965,cs),
(884.903,493.301,o),
(835.849,472.969,o),
(778.405,472.969,cs),
(759.454,472.969,o),
(741.297,475.253,o),
(723.934,479.82,cs),
(706.57,484.389,o),
(690.135,491.202,o),
(674.627,500.259,cs),
(659.118,509.316,o),
(644.657,520.551,o),
(631.244,533.964,cs),
(590.58,574.627,o),
(570.248,623.681,o),
(570.248,681.125,cs)
);
},
{
closed = 1;
nodes = (
(818.57,217.436,o),
(821.088,224.079,o),
(824.536,230.332,cs),
(827.983,236.585,o),
(832.257,242.261,o),
(837.355,247.36,cs),
(903.475,313.479,ls),
(918.306,328.31,o),
(936.208,335.725,o),
(957.182,335.725,cs),
(1132.98,335.725,l),
(1132.98,511.53,ls),
(1132.98,532.505,o),
(1140.4,550.407,o),
(1155.23,565.236,cs),
(1279.54,689.548,l),
(1155.23,813.858,ls),
(1140.4,828.689,o),
(1132.98,846.591,o),
(1132.98,867.565,cs),
(1132.98,1043.37,l),
(957.182,1043.37,ls),
(936.208,1043.37,o),
(918.306,1050.79,o),
(903.474,1065.62,cs),
(848.508,1120.58,ls),
(837.436,1131.66,o),
(830.455,1144.89,o),
(827.565,1160.28,cs),
(812.786,1239.02,o),
(793.431,1311.41,o),
(769.501,1377.46,cs),
(745.571,1443.51,o),
(717.352,1502.83,o),
(684.844,1555.4,cs),
(652.337,1607.98,o),
(615.473,1654.21,o),
(574.252,1694.09,c),
(607.19,1623.52,o),
(635.852,1545.3,o),
(660.236,1459.44,cs),
(684.621,1373.59,o),
(705.021,1279.31,o),
(721.438,1176.6,cs),
(725.517,1151.08,o),
(718.419,1129.18,o),
(700.145,1110.91,cs),
(654.852,1065.62,ls),
(640.021,1050.79,o),
(622.119,1043.37,o),
(601.145,1043.37,cs),
(425.341,1043.37,l),
(425.341,867.565,ls),
(425.341,846.591,o),
(417.925,828.689,o),
(403.095,813.859,cs),
(278.783,689.548,l),
(403.095,565.237,ls),
(417.925,550.407,o),
(425.341,532.505,o),
(425.341,511.53,cs),
(425.341,335.725,l),
(601.145,335.725,ls),
(611.363,335.725,o),
(621.062,333.823,o),
(630.242,330.021,cs),
(639.423,326.218,o),
(647.626,320.705,o),
(654.851,313.479,cs),
(697.05,271.282,ls),
(715.584,252.746,o),
(722.633,230.561,o),
(718.199,204.726,cs),
(687.512,25.947,o),
(644.132,-125.404,o),
(588.058,-249.326,c),
(696.096,-139.992,o),
(772.404,13.252,o),
(816.98,210.404,cs)
);
},
{
closed = 1;
nodes = (
(867.073,-230.662,o),
(660.934,-470.58,o),
(341.684,-564.478,cs),
(334.305,-566.648,l),
(327.499,-563.066,ls),
(276.98,-536.487,o),
(251.39,-507.05,o),
(250.729,-474.757,cs),
(250.561,-466.533,o),
(252.45,-458.808,o),
(256.397,-451.581,cs),
(260.345,-444.354,o),
(265.756,-437.974,o),
(272.629,-432.441,cs),
(406.434,-324.745,o),
(502.243,-119.324,o),
(560.055,183.82,c),
(349.39,183.82,ls),
(338.759,183.82,o),
(328.743,185.951,o),
(319.341,190.214,cs),
(309.938,194.476,o),
(301.684,200.61,o),
(294.577,208.615,cs),
(287.819,216.227,o),
(282.605,224.357,o),
(278.938,233.004,cs),
(275.27,241.652,o),
(273.437,250.575,o),
(273.437,259.772,cs),
(273.437,480.069,l),
(117.664,635.84,ls),
(108.184,645.319,o),
(101.43,655.592,o),
(97.4,666.658,cs),
(93.371,677.725,o),
(92.849,688.983,o),
(95.834,700.435,cs),
(100.769,719.361,o),
(108.046,733.634,o),
(117.664,743.254,cs),
(273.437,899.027,l),
(273.437,1119.32,ls),
(273.437,1124.62,o),
(273.98,1129.81,o),
(275.066,1134.88,cs),
(276.153,1139.94,o),
(277.744,1144.78,o),
(279.84,1149.4,cs),
(281.936,1154.02,o),
(284.529,1158.41,o),
(287.619,1162.58,cs),
(290.71,1166.75,o),
(294.248,1170.6,o),
(298.231,1174.13,cs),
(303.252,1178.59,o),
(308.469,1182.37,o),
(313.883,1185.48,cs),
(319.296,1188.58,o),
(325.025,1190.99,o),
(331.068,1192.71,cs),
(337.111,1194.42,o),
(343.218,1195.28,o),
(349.39,1195.28,cs),
(564.284,1195.28,l),
(507.666,1517.19,o),
(409.336,1741.5,o),
(269.294,1868.2,cs),
(264.566,1872.48,l),
(263.382,1878.74,ls),
(256.718,1913.97,o),
(257.252,1940.6,o),
(264.983,1958.61,cs),
(267.92,1965.46,o),
(271.393,1971.58,o),
(275.4,1976.98,cs),
(279.408,1982.38,o),
(283.894,1986.92,o),
(288.856,1990.62,cs),
(293.82,1994.31,o),
(299.116,1997.08,o),
(304.745,1998.93,cs),
(310.373,2000.78,o),
(316.395,2001.58,o),
(322.812,2001.31,cs),
(329.228,2001.04,o),
(335.774,1999.66,o),
(342.45,1997.16,cs),
(676.588,1898.51,o),
(886.55,1636.65,o),
(972.335,1211.58,c),
(988.644,1195.28,l),
(1208.94,1195.28,ls),
(1219.57,1195.28,o),
(1229.58,1193.14,o),
(1238.99,1188.88,cs),
(1248.39,1184.62,o),
(1256.64,1178.49,o),
(1263.75,1170.48,cs),
(1277.84,1154.61,o),
(1284.89,1137.55,o),
(1284.89,1119.32,cs),
(1284.89,899.027,l),
(1440.66,743.254,ls),
(1461.11,722.805,o),
(1468.39,701.273,o),
(1462.49,678.658,cs),
(1457.56,659.732,o),
(1450.28,645.459,o),
(1440.66,635.84,cs),
(1284.89,480.069,l),
(1284.89,259.772,ls),
(1284.89,237.907,o),
(1276.62,219.637,o),
(1260.09,204.961,cs),
(1252.48,198.202,o),
(1244.35,192.989,o),
(1235.71,189.321,cs),
(1227.06,185.654,o),
(1218.13,183.82,o),
(1208.94,183.82,cs),
(988.644,183.82,l),
(960.101,155.278,l)
);
}
);
width = 1557;
}
);
unicode = 64831;
}
{
glyphname = NameMe.303;
layers = (
{
layerId = m001;
shapes = (
{
closed = 1;
nodes = (
(66,333,ls),
(225,333,o),
(263,350,o),
(263,508,cs),
(263,613.616,o),
(207.722,1110.5,o),
(168,1308,c),
(330,1479,ls),
(387.416,1539.61,o),
(405,1559,o),
(409,1454,cs),
(445,569,ls),
(446.116,540.005,o),
(448,512,o),
(448,486,cs),
(448,161,o),
(370,0,o),
(66,0,cs),
(-5,0,ls),
(-48,0,o),
(-50,38,o),
(-50,113,cs),
(-50,219,ls),
(-50,295,o),
(-48,333,o),
(-5,333,cs)
);
}
);
width = 569;
}
);
}
{
glyphname = NameMe.304;
layers = (
{
layerId = m001;
shapes = (
{
closed = 1;
nodes = (
(66,333,ls),
(202,333,o),
(269,400,o),
(269,539,cs),
(269,693.564,o),
(243.735,842.271,o),
(201,1108,c),
(363,1279,ls),
(385.786,1304.16,o),
(406.534,1324.81,o),
(420.041,1324.81,cs),
(434.987,1324.81,o),
(441.516,1300.65,o),
(442,1254,cs),
(452,540,ls),
(454,374,o),
(468,333,o),
(610,333,cs),
(652,333,ls),
(679,333,o),
(682,294,o),
(682,217,cs),
(682,114,ls),
(682,38,o),
(679,0,o),
(652,0,cs),
(611,0,ls),
(481,0,o),
(413,55,o),
(348,146,c),
(272,55,o),
(178,0,o),
(66,0,cs),
(-5,0,ls),
(-48,0,o),
(-50,38,o),
(-50,113,cs),
(-50,219,ls),
(-50,295,o),
(-48,333,o),
(-5,333,cs)
);
}
);
width = 647;
}
);
}
{
glyphname = NameMe.306;
layers = (
{
anchors = (
{
name = "Anchor-10";
pos = (179.89,1461.48);
},
{
name = "Anchor-7";
pos = (305.394,-215.548);
}
);
layerId = m001;
shapes = (
{
closed = 1;
nodes = (
(337.432,528.445,o),
(335.87,427.215,o),
(381.532,376,cs),
(408.448,345.81,o),
(451.774,333,o),
(522,333,cs),
(543,333,ls),
(570,333,o),
(573,294,o),
(573,217,cs),
(573,114,ls),
(573,38,o),
(569,0,o),
(543,0,cs),
(522,0,ls),
(403.467,0,o),
(321.814,22.185,o),
(265.404,74,cs),
(178.813,153.539,o),
(151.707,302.896,o),
(142,549,cs),
(129.497,865.998,o),
(122,977,o),
(88,1185,c),
(249,1357,ls),
(303,1416,o),
(317.245,1421.58,o),
(321,1313,cs),
(330.8,1029.66,o),
(331.239,970.412,o),
(335,702,cs)
);
}
);
width = 538;
}
);
}
{
glyphname = NameMe.65541;
layers = (
{
anchors = (
{
name = "Anchor-10";
pos = (328.943,1311.83);
},
{
name = "Anchor-7";
pos = (357.044,-246.154);
}
);
layerId = m001;
shapes = (
{
closed = 1;
nodes = (
(100,333,ls),
(216,333,o),
(343,346.642,o),
(343,407,cs),
(343,439.73,o),
(280.788,537.545,o),
(225,611,c),
(348,831,ls),
(362,857,o),
(373,869,o),
(380,869,cs),
(388,869,o),
(398,858,o),
(412,837,cs),
(488,720,o),
(517,603,o),
(517,454,cs),
(517,188,o),
(372,0,o),
(102,0,cs),
(-5,0,ls),
(-48,0,o),
(-50,38,o),
(-50,113,cs),
(-50,219,ls),
(-50,295,o),
(-48,333,o),
(-5,333,cs)
);
}
);
width = 599;
}
);
}
{
glyphname = NameMe.65542;
layers = (
{
anchors = (
{
name = "Anchor-10";
pos = (403.931,1197.71);
},
{
name = "Anchor-7";
pos = (377.847,-204.398);
}
);
layerId = m001;
shapes = (
{
closed = 1;
nodes = (
(115,333,ls),
(313,333,o),
(392,392,o),
(395,511,cs),
(398,615,l),
(515,615,l),
(521,515,ls),
(527,394,o),
(535,333,o),
(725,333,cs),
(748,333,ls),
(775,333,o),
(778,294,o),
(778,217,cs),
(778,114,ls),
(778,38,o),
(775,0,o),
(748,0,cs),
(726,0,ls),
(598,0,o),
(520,58,o),
(462,154,c),
(392,58,o),
(247,0,o),
(108,0,cs),
(-5,0,ls),
(-48,0,o),
(-50,38,o),
(-50,113,cs),
(-50,219,ls),
(-50,295,o),
(-48,333,o),
(-5,333,cs)
);
}
);
width = 743;
}
);
}
{
glyphname = NameMe.65567;
layers = (
{
layerId = m001;
shapes = (
{
closed = 1;
nodes = (
(556,298,ls),
(457.372,298,o),
(414.058,254.281,o),
(384.12,190.525,c),
(516.114,160.874,ls),
(553.317,152.371,o),
(572,126.82,o),
(572,87,cs),
(572,40.072,o),
(558.664,-4.148,o),
(529.974,-41.035,cs),
(483.729,-102.695,o),
(403.804,-133,o),
(294,-133,cs),
(230.477,-133,o),
(172.828,-122.928,o),
(124.077,-102.615,cs),
(119.644,-100.768,l),
(121.311,-96.265,l),
(158.311,3.735,l),
(160.225,8.91,l),
(165.187,6.496,ls),
(201.433,-11.137,o),
(244.652,-21,o),
(295,-21,cs),
(402.682,-21,o),
(468.94,-0.72,o),
(497.22,32.273,cs),
(503.963,39.979,o),
(506,44.64,o),
(506,50,cs),
(506,74.518,o),
(438.605,86.38,o),
(369.717,105.167,cs),
(337.065,113.594,o),
(319,134.738,o),
(319,167,cs),
(319,178.576,o),
(321.096,192.065,o),
(325.211,205.437,cs),
(356.422,312.16,o),
(408.226,380.837,o),
(479.034,410.598,cs),
(502.743,420.906,o),
(528.494,425,o),
(554,425,cs),
(577.58,425,o),
(602.108,420.901,o),
(626.581,412.743,cs),
(630.309,411.501,l),
(629.983,407.585,ls),
(627.94,383.068,o),
(620.893,346.968,o),
(609.868,299.861,cs),
(608.901,295.729,l),
(604.667,296.011,l),
(574.834,298,l)
);
}
);
width = 713;
}
);
}
{
glyphname = "ain-ar.fina";
layers = (
{
anchors = (
{
name = "Anchor-10";
pos = (711.062,1126.07);
},
{
name = "Anchor-7";
pos = (654.792,-826.821);
}
);
layerId = m001;
shapes = (
{
closed = 1;
nodes = (
(959,874,o),
(1075,824,o),
(1075,708,cs),
(1075,597,o),
(1000,502,o),
(852,421,c),
(869,362,o),
(1006,333,o),
(1309,333,cs),
(1338,333,ls),
(1363,333,o),
(1368,282,o),
(1368,181,cs),
(1368,114,ls),
(1368,38,o),
(1363,0,o),
(1338,0,cs),
(1309,0,ls),
(957,0,o),
(772,134,o),
(725,382,c),
(393,278,o),
(236,74,o),
(236,-91,cs),
(236,-290.822,o),
(515.606,-362,o),
(772,-362,cs),
(934,-362,o),
(1041,-343,o),
(1128,-327,cs),
(1185,-316,o),
(1220,-308,o),
(1189,-373,cs),
(1105,-549,o),
(964,-637,o),
(714,-637,cs),
(335,-637,o),
(94,-469,o),
(94,-130,cs),
(94,243,o),
(365,473,o),
(649,566,c),
(612,611,o),
(509,664,o),
(339,665,c),
(339,800,l),
(414,849,o),
(551,874,o),
(750,874,cs)
);
}
);
width = 1333;
}
);
}
{
glyphname = "ain-ar.init";
layers = (
{
anchors = (
{
name = "Anchor-10";
pos = (560.49,1193.27);
},
{
name = "Anchor-7";
pos = (496.566,-245.979);
}
);
layerId = m001;
shapes = (
{
closed = 1;
nodes = (
(271,333,l),
(216,385,o),
(188,451,o),
(188,528,cs),
(188,736,o),
(361,975,o),
(598,975,cs),
(747,975,o),
(855,892,o),
(936,727,c),
(882,663,l),
(793,705,o),
(723,720,o),
(646,720,cs),
(535,720,o),
(338,646,o),
(338,542,cs),
(338,521,o),
(468,424,o),
(519,392,cs),
(532,384,o),
(546,380,o),
(562,382,cs),
(617,390,o),
(711,409,o),
(843,437,cs),
(988,468,ls),
(1038,478,o),
(1056,457,o),
(1036,416,cs),
(915,168,l),
(601,54,o),
(352,0,o),
(67,0,cs),
(-5,0,ls),
(-48,0,o),
(-50,38,o),
(-50,113,cs),
(-50,219,ls),
(-50,295,o),
(-48,333,o),
(-5,333,cs)
);
}
);
width = 1128;
}
);
}
{
glyphname = "ain-ar.medi";
layers = (
{
anchors = (
{
name = "Anchor-10";
pos = (553.643,1082.02);
},
{
name = "Anchor-7";
pos = (563.281,-237.563);
}
);
layerId = m001;
shapes = (
{
closed = 1;
nodes = (
(67,333,ls),
(325,333,o),
(465,335,o),
(530,375,c),
(469,466,o),
(365,535,o),
(216,553,c),
(215,704,l),
(343,750,o),
(462,774,o),
(606,774,cs),
(794,774,o),
(909,722,o),
(909,615,cs),
(909,545,o),
(864,465,o),
(772,376,c),
(840,335,o),
(922,333,o),
(1044,333,cs),
(1064,333,ls),
(1089,333,o),
(1094,276,o),
(1094,161,cs),
(1094,154,ls),
(1094,51,o),
(1089,0,o),
(1064,0,cs),
(1000,0,ls),
(830,0,o),
(726,46,o),
(626,157,c),
(495,46,o),
(306,0,o),
(121,0,cs),
(-5,0,ls),
(-48,0,o),
(-50,38,o),
(-50,113,cs),
(-50,219,ls),
(-50,295,o),
(-48,333,o),
(-5,333,cs)
);
}
);
width = 1059;
}
);
}
{
glyphname = "alef-ar.fina";
layers = (
{
anchors = (
{
name = "Anchor-10";
pos = (179.89,1631.48);
},
{
name = "Anchor-7";
pos = (305.394,-215.548);
}
);
layerId = m001;
shapes = (
{
closed = 1;
nodes = (
(337.282,539.097,o),
(336.047,439.913,o),
(373.646,386,cs),
(399.718,348.616,o),
(444.462,333,o),
(522,333,cs),
(543,333,ls),
(570,333,o),
(573,294,o),
(573,217,cs),
(573,114,ls),
(573,38,o),
(569,0,o),
(543,0,cs),
(522,0,ls),
(380.818,0,o),
(291.955,31.474,o),
(235.752,107,cs),
(172.334,192.221,o),
(150.498,333.531,o),
(142,549,cs),
(129.497,865.998,o),
(122,1147,o),
(88,1355,c),
(249,1527,ls),
(303,1586,o),
(317.245,1591.58,o),
(321,1483,cs),
(330.8,1199.66,o),
(331.239,970.412,o),
(335,702,cs)
);
}
);
width = 538;
}
);
}
{
glyphname = "alefMaksura-ar.init";
layers = (
{
anchors = (
{
name = "Anchor-10";
pos = (328.943,1311.83);
},
{
name = "Anchor-7";
pos = (357.044,-246.154);
}
);
layerId = m001;
shapes = (
{
closed = 1;
nodes = (
(140,333,ls),
(256,333,o),
(413,347.642,o),
(413,407,cs),
(413,439.731,o),
(350.788,537.545,o),
(295,611,c),
(418,831,ls),
(432,857,o),
(443,869,o),
(450,869,cs),
(458,869,o),
(468,858,o),
(482,837,cs),
(558,720,o),
(587,603,o),
(587,454,cs),
(587,189,o),
(412,0,o),
(142,0,cs),
(-5,0,ls),
(-48,0,o),
(-50,38,o),
(-50,113,cs),
(-50,219,ls),
(-50,295,o),
(-48,333,o),
(-5,333,cs)
);
}
);
width = 669;
}
);
}
{
glyphname = "alefMaksura-ar.medi";
layers = (
{
anchors = (
{
name = "Anchor-10";
pos = (403.931,1197.71);
},
{
name = "Anchor-7";
pos = (377.847,-204.398);
}
);
layerId = m001;
shapes = (
{
closed = 1;
nodes = (
(145,333,ls),
(343,333,o),
(443,392,o),
(446,511,cs),
(449,615,l),
(566,615,l),
(572,515,ls),
(578,394,o),
(585,333,o),
(775,333,cs),
(798,333,ls),
(825,333,o),
(828,294,o),
(828,217,cs),
(828,114,ls),
(828,38,o),
(825,0,o),
(798,0,cs),
(776,0,ls),
(648,0,o),
(571,58,o),
(513,154,c),
(443,58,o),
(307,0,o),
(138,0,cs),
(-5,0,ls),
(-48,0,o),
(-50,38,o),
(-50,113,cs),
(-50,219,ls),
(-50,295,o),
(-48,333,o),
(-5,333,cs)
);
}
);
width = 793;
}
);
}
{
glyphname = arabic_2dots;
layers = (
{
layerId = m001;
shapes = (
{
closed = 1;
nodes = (
(145.204,-33.54,l),
(-13.404,125.071,l),
(145.204,283.68,l),
(303.815,125.071,l)
);
},
{
closed = 1;
nodes = (
(478.315,283.68,l),
(636.926,125.071,l),
(478.315,-33.54,l),
(319.706,125.071,l)
);
}
);
width = 622;
}
);
}
{
glyphname = arabic_3dots;
layers = (
{
layerId = m001;
shapes = (
{
closed = 1;
nodes = (
(450.028,355.359,l),
(300,205.328,l),
(149.972,355.359,l),
(300,505.39,l)
);
},
{
closed = 1;
nodes = (
(615.689,99.279,l),
(470.66,-50.751,l),
(320.632,99.279,l),
(470.66,249.31,l)
);
},
{
closed = 1;
nodes = (
(284.369,99.279,l),
(134.34,-50.751,l),
(-15.69,99.279,l),
(134.34,249.31,l)
);
}
);
width = 600;
}
);
}
{
glyphname = arabic_3dots_a;
layers = (
{
layerId = m001;
shapes = (
{
closed = 1;
nodes = (
(174,-117,l),
(324,33,l),
(474,-117,l),
(324,-267,l)
);
},
{
closed = 1;
nodes = (
(345,139,l),
(495,289,l),
(640,139,l),
(495,-11,l)
);
},
{
closed = 1;
nodes = (
(8,139,l),
(158,289,l),
(308,139,l),
(158,-11,l)
);
}
);
width = 647;
}
);
}
{
glyphname = arabic_dot;
layers = (
{
layerId = m001;
shapes = (
{
closed = 1;
nodes = (
(284.002,129.426,l),
(118.072,-36.506,l),
(-47.859,129.426,l),
(118.072,295.355,l)
);
}
);
width = 237;
}
);
}
{
glyphname = arabic_gaf_bar;
layers = (
{
layerId = m001;
shapes = (
{
closed = 1;
nodes = (
(766.747,2112.1,l),
(63.175,1815.75,l),
(106.133,1936.26,l),
(773.685,2223.04,ls),
(786.312,2228.59,o),
(791.292,2223.32,o),
(788.625,2207.23,cs)
);
}
);
width = 801;
}
);
}
{
glyphname = "behDotless-ar.fina";
layers = (
{
anchors = (
{
name = "Anchor-10";
pos = (1045.81,1840.22);
},
{
name = "Anchor-7";
pos = (975.431,-366.258);
}
);
layerId = m001;
shapes = (
{
closed = 1;
nodes = (
(1529,13,o),
(1215,-57,o),
(832,-57,cs),
(351.867,-57,o),
(96.988,55.126,o),
(96.988,396.01,cs),
(96.988,520.933,o),
(136.178,638.755,o),
(213,755,c),
(304,718,l),
(267.676,628.199,o),
(249.996,560.041,o),
(249.996,508.694,cs),
(249.996,332.715,o),
(449.003,275,o),
(855,275,cs),
(1364,275,o),
(1618.84,352.978,o),
(1623,511,cs),
(1626,615,l),
(1743,615,l),
(1749,515,ls),
(1752.63,441.784,o),
(1755.89,390.537,o),
(1800,361.478,cs),
(1828.79,342.513,o),
(1874.97,333,o),
(1950,333,cs),
(1973,333,ls),
(2000,333,o),
(2003,294,o),
(2003,217,cs),
(2003,114,ls),
(2003,38,o),
(2000,0,o),
(1973,0,cs),
(1951,0,ls),
(1823,0,o),
(1739,61,o),
(1681,157,c)
);
}
);
width = 1968;
}
);
}
{
glyphname = "dal-ar.fina";
layers = (
{
anchors = (
{
name = "Anchor-10";
pos = (667.225,1274.18);
},
{
name = "Anchor-7";
pos = (470.662,-216.64);
}
);
layerId = m001;
shapes = (
{
closed = 1;
nodes = (
(188,3,o),
(83,110,o),
(83,326,cs),
(83,375,o),
(96,447,o),
(121,541,c),
(213,522,l),
(211,501,o),
(209,481,o),
(209,459,cs),
(209,376,o),
(279,335,o),
(433,335,cs),
(571,335,o),
(746,360,o),
(746,437,cs),
(746,448,o),
(744,461,o),
(741,475,c),
(576,928,l),
(686,1084,ls),
(716.256,1125.6,o),
(728.58,1126.81,o),
(746,1073,cs),
(914,554,ls),
(961,410,o),
(1004,333,o),
(1158,333,cs),
(1183,333,ls),
(1210,333,o),
(1214,294,o),
(1214,217,cs),
(1214,114,ls),
(1214,38,o),
(1210,0,o),
(1183,0,cs),
(1158,0,ls),
(1006,0,o),
(918,84,o),
(836,233,c),
(763,102,l),
(670,35,o),
(551,2,o),
(414,2,cs)
);
}
);
width = 1179;
}
);
}
{
glyphname = "fehDotless-ar.fina";
layers = (
{
anchors = (
{
name = "Anchor-10";
pos = (769.559,2023.43);
},
{
name = "Anchor-7";
pos = (960.034,-452.74);
}
);
layerId = m001;
shapes = (
{
closed = 1;
nodes = (
(1481,676,o),
(1373,594,o),
(1373,537,cs),
(1373,469,o),
(1509,396,o),
(1537,396,cs),
(1585,396,o),
(1688,486,o),
(1688,540,cs),
(1688,604,o),
(1582,676,o),
(1537,676,cs)
);
},
{
closed = 1;
nodes = (
(1302,-13,o),
(1072,-57,o),
(832,-57,cs),
(352,-57,o),
(97,55,o),
(97,396,cs),
(97,521,o),
(136,639,o),
(213,755,c),
(304,718,l),
(268,628,o),
(250,560,o),
(250,509,cs),
(250,333,o),
(449,275,o),
(855,275,cs),
(1016,275,o),
(1147,280,o),
(1315,321,c),
(1247,401,o),
(1233,503,o),
(1233,576,cs),
(1233,660,o),
(1256,738,o),
(1303,809,cs),
(1372,912,o),
(1451,964,o),
(1540,964,cs),
(1646,964,o),
(1728,904,o),
(1789,785,cs),
(1821,722,o),
(1837,661,o),
(1837,602,cs),
(1837,505,o),
(1804,406,o),
(1747,340,c),
(1812,334,o),
(1836,333,o),
(1939,333,cs),
(1981,333,ls),
(2006,333,o),
(2011,276,o),
(2011,161,cs),
(2011,154,ls),
(2011,51,o),
(2006,0,o),
(1981,0,cs),
(1939,0,ls),
(1807,0,o),
(1650,15,o),
(1523,107,c)
);
}
);
width = 1976;
}
);
}
{
glyphname = "fehDotless-ar.init";
layers = (
{
anchors = (
{
name = "Anchor-10";
pos = (495.608,2086.05);
},
{
name = "Anchor-7";
pos = (399.106,-362.532);
}
);
layerId = m001;
shapes = (
{
closed = 1;
nodes = (
(291,334,ls),
(478,335,o),
(571,373,o),
(571,470,c),
(520,455,o),
(451,445,o),
(362,445,cs),
(197,445,o),
(119,520,o),
(119,676,cs),
(119,889.802,o),
(215.639,1115.01,o),
(397.104,1115.01,cs),
(635.132,1115.01,o),
(712,787.622,o),
(712,538,cs),
(712,154,o),
(598,0,o),
(226,0,cs),
(-5,0,ls),
(-48,0,o),
(-50,38,o),
(-50,113,cs),
(-50,219,ls),
(-50,295,o),
(-48,333,o),
(-5,333,cs)
);
},
{
closed = 1;
nodes = (
(250,699,o),
(339,695,o),
(381,695,cs),
(436,695,o),
(486,704,o),
(560,722,c),
(504,818,o),
(454,866,o),
(382,866,cs),
(313.886,866,o),
(250,808.049,o),
(250,735,cs)
);
}
);
width = 789;
}
);
}
{
glyphname = "fehDotless-ar.medi";
layers = (
{
anchors = (
{
name = "Anchor-10";
pos = (493.605,1522.67);
},
{
name = "Anchor-7";
pos = (466.796,-194.829);
}
);
layerId = m001;
shapes = (
{
closed = 1;
nodes = (
(102,334,ls),
(215,335,o),
(241,334,o),
(304,341,c),
(236,421,o),
(222,503,o),
(222,576,cs),
(222,660,o),
(245,738,o),
(292,809,cs),
(361,912,o),
(440,964,o),
(529,964,cs),
(635,964,o),
(717,904,o),
(778,785,cs),
(810,722,o),
(826,661,o),
(826,602,cs),
(826,504.826,o),
(792.533,405.955,o),
(736,340,c),
(801,334,o),
(825,333,o),
(928,333,cs),
(970,333,ls),
(995,333,o),
(1000,276,o),
(1000,161,cs),
(1000,154,ls),
(1000,51,o),
(995,0,o),
(970,0,cs),
(928,0,ls),
(796,0,o),
(646,16,o),
(519,107,c),
(382,16,o),
(230,0,o),
(82,0,cs),
(-5,0,ls),
(-48,0,o),
(-50,38,o),
(-50,113,cs),
(-50,219,ls),
(-50,295,o),
(-48,333,o),
(-5,333,cs)
);
},
{
closed = 1;
nodes = (
(470,676,o),
(362,594,o),
(362,537,cs),
(362,469.152,o),
(498.218,396,o),
(526,396,cs),
(574.031,396,o),
(677,485.734,o),
(677,540,cs),
(677,604,o),
(571,676,o),
(526,676,cs)
);
}
);
width = 965;
}
);
}
{
glyphname = "gaf-ar.fina";
layers = (
{
anchors = (
{
name = "Anchor-10";
pos = (1303.36,1591.03);
},
{
name = "Anchor-7";
pos = (876.157,-267.146);
}
);
layerId = m001;
shapes = (
{
closed = 1;
nodes = (
(1388,940,o),
(1564,840,o),
(1755,641,cs),
(1952,436,o),
(2055,333,o),
(2183,333,cs),
(2206,333,ls),
(2232,333,o),
(2236,283,o),
(2236,162,cs),
(2236,155,ls),
(2236,58,o),
(2232,0,o),
(2206,0,cs),
(2183,0,ls),
(2006,0,o),
(1885.44,126,o),
(1733.44,316,c),
(1644.84,30.635,o),
(1236.96,-57,o),
(832,-57,cs),
(351.867,-57,o),
(96.988,55.126,o),
(96.988,396.01,cs),
(96.988,520.933,o),
(136.178,638.755,o),
(213,755,c),
(304,718,l),
(267.676,628.199,o),
(249.996,560.041,o),
(249.996,508.694,cs),
(249.996,332.715,o),
(449.003,275,o),
(855,275,cs),
(1130.53,275,o),
(1606.78,288.627,o),
(1606.78,444.978,cs),
(1606.78,537.083,o),
(1282.48,725.417,o),
(1071,870,cs),
(1052,884,o),
(1042,908,o),
(1042,927,cs),
(1042,931,o),
(1043,936,o),
(1044,940,cs),
(1102,1134,ls),
(1108,1155,o),
(1119,1168,o),
(1131,1173,cs),
(1897,1498,ls),
(1923,1509,o),
(1928,1498,o),
(1923,1469,cs),
(1886,1249,l),
(1306,1008,l)
);
},
{
pos = (1045,-777);
ref = arabic_gaf_bar;
scale = (1.1342,1.1342);
}
);
width = 2201;
}
);
}
{
glyphname = "gaf-ar.init";
layers = (
{
anchors = (
{
name = "Anchor-10";
pos = (290.851,1565.67);
},
{
name = "Anchor-7";
pos = (314.687,-250.871);
}
);
layerId = m001;
shapes = (
{
closed = 1;
nodes = (
(137,333,ls),
(324,333,o),
(576,337,o),
(576,451,cs),
(576,541,o),
(135,801,o),
(45,870,cs),
(26,884,o),
(16,908,o),
(16,927,cs),
(16,931,o),
(17,936,o),
(18,940,cs),
(76,1134,ls),
(82,1155,o),
(93,1168,o),
(105,1173,cs),
(871,1498,ls),
(897,1509,o),
(902,1498,o),
(897,1469,cs),
(860,1249,l),
(280,1008,l),
(492,869.1,o),
(725.008,649.253,o),
(725.008,465.309,cs),
(725.008,158.37,o),
(520,0,o),
(133,0,cs),
(-5,0,ls),
(-48,0,o),
(-50,38,o),
(-50,113,cs),
(-50,219,ls),
(-50,295,o),
(-48,333,o),
(-5,333,cs)
);
},
{
pos = (17,-777);
ref = arabic_gaf_bar;
scale = (1.1342,1.1342);
}
);
width = 955;
}
);
}
{
glyphname = "gaf-ar.medi";
layers = (
{
anchors = (
{
name = "Anchor-10";
pos = (290.851,1565.67);
},
{
name = "Anchor-7";
pos = (314.687,-250.871);
}
);
layerId = m001;
shapes = (
{
closed = 1;
nodes = (
(136,333,ls),
(323,333,o),
(576,338,o),
(576,451,cs),
(576,541,o),
(135,801,o),
(45,870,cs),
(26,884,o),
(16,908,o),
(16,927,cs),
(16,931,o),
(17,936,o),
(18,940,cs),
(76,1134,ls),
(82,1155,o),
(93,1168,o),
(105,1173,cs),
(871,1498,ls),
(897,1509,o),
(902,1498,o),
(897,1469,cs),
(860,1249,l),
(280,1008,l),
(362,940,o),
(538,840,o),
(729,641,cs),
(926,436,o),
(1029,333,o),
(1157,333,cs),
(1180,333,ls),
(1206,333,o),
(1209,283,o),
(1209,162,cs),
(1209,155,ls),
(1209,58,o),
(1206,0,o),
(1180,0,cs),
(1157,0,ls),
(980,0,o),
(869,125,o),
(717,315,c),
(693,164.771,o),
(500,0,o),
(133,0,cs),
(-5,0,ls),
(-48,0,o),
(-50,38,o),
(-50,113,cs),
(-50,219,ls),
(-50,295,o),
(-48,333,o),
(-5,333,cs)
);
},
{
pos = (17,-777);
ref = arabic_gaf_bar;
scale = (1.1342,1.1342);
}
);
width = 1174;
}
);
}
{
glyphname = "hah-ar.fina";
layers = (
{
anchors = (
{
name = "Anchor-10";
pos = (598.28,1182.97);
},
{
name = "Anchor-7";
pos = (644.792,-826.821);
}
);
layerId = m001;
shapes = (
{
closed = 1;
nodes = (
(1294,0,ls),
(1017,0,o),
(889,141.989,o),
(871,427.989,c),
(532.633,351.179,o),
(236,188.346,o),
(236,-91,cs),
(236,-296,o),
(510,-362,o),
(772,-362,cs),
(934,-362,o),
(1031.1,-343.552,o),
(1118,-327,cs),
(1202,-311,o),
(1206.14,-315.323,o),
(1179,-373,cs),
(1095,-549,o),
(958,-637,o),
(718,-637,cs),
(329,-637,o),
(94,-469,o),
(94,-135,cs),
(94,249,o),
(371,513,o),
(678,595,c),
(577,614,o),
(485,648,o),
(373,648,cs),
(299,648,o),
(232,598,o),
(169,521,c),
(81,575,l),
(174,800,o),
(276,927,o),
(389,927,cs),
(450,927,o),
(638,876,o),
(979,777,cs),
(1049,756,o),
(1123,746,o),
(1200,746,cs),
(1220,746,ls),
(1262,746,o),
(1244,721,o),
(1234,696,cs),
(1139,471,l),
(1092.9,466.412,o),
(1047.36,460.486,o),
(1001,453,c),
(1005,373,o),
(1103,333,o),
(1294,333,cs),
(1337,333,ls),
(1364,333,o),
(1367,294,o),
(1367,217,cs),
(1367,114,ls),
(1367,38,o),
(1363,0,o),
(1337,0,cs)
);
}
);
width = 1332;
}
);
}
{
glyphname = "hah-ar.init";
layers = (
{
anchors = (
{
name = "Anchor-10";
pos = (574.444,1195.68);
},
{
name = "Anchor-7";
pos = (543.297,-212.934);
}
);
layerId = m001;
shapes = (
{
closed = 1;
nodes = (
(101,333,ls),
(470,333,o),
(724,377,o),
(924,464,c),
(808.936,514.239,o),
(576.841,612,o),
(480,612,cs),
(369,612,o),
(286,560,o),
(217,473,c),
(138,519,l),
(211.202,759.522,o),
(329.735,901,o),
(503,901,cs),
(743.739,901,o),
(1061.18,642,o),
(1350,642,cs),
(1392,642,o),
(1418,640,o),
(1426,636,cs),
(1431,634,o),
(1430,623,o),
(1424,605,c),
(1310,375,l),
(1226,375,ls),
(988,375,o),
(659,0,o),
(101,0,cs),
(-5,0,ls),
(-48,0,o),
(-50,38,o),
(-50,113,cs),
(-50,219,ls),
(-50,295,o),
(-48,333,o),
(-5,333,cs)
);
}
);
width = 1472;
}
);
}
{
glyphname = "hah-ar.medi";
layers = (
{
anchors = (
{
name = "Anchor-10";
pos = (574.444,1195.68);
},
{
name = "Anchor-7";
pos = (548.556,-220.048);
}
);
layerId = m001;
shapes = (
{
closed = 1;
nodes = (
(101,333,ls),
(470,333,o),
(723,377,o),
(924,464,c),
(809,514,o),
(577,612,o),
(480,612,cs),
(369,612,o),
(286,560,o),
(217,473,c),
(138,519,l),
(211,760,o),
(330,901,o),
(503,901,cs),
(744,901,o),
(1061,642,o),
(1350,642,cs),
(1392,642,o),
(1418,640,o),
(1426,636,cs),
(1431,634,o),
(1430,623,o),
(1424,605,c),
(1320,395,l),
(1226,395,ls),
(1197,395,o),
(1161,390,o),
(1136,380,c),
(1142,339,o),
(1177,333,o),
(1308,333,cs),
(1515,333,ls),
(1542,333,o),
(1545,294,o),
(1545,217,cs),
(1545,114,ls),
(1545,38,o),
(1541,0,o),
(1515,0,cs),
(1308,0,ls),
(1093,0,o),
(965,91,o),
(961,302,c),
(750,191,o),
(518,0,o),
(101,0,cs),
(-5,0,ls),
(-48,0,o),
(-50,38,o),
(-50,113,cs),
(-50,219,ls),
(-50,295,o),
(-48,333,o),
(-5,333,cs)
);
}
);
width = 1510;
}
);
}
{
glyphname = "heh-ar.fina";
layers = (
{
anchors = (
{
name = "Anchor-10";
pos = (598.442,1318.31);
},
{
name = "Anchor-7";
pos = (443.352,-215.97);
}
);
layerId = m001;
shapes = (
{
closed = 1;
nodes = (
(1022,0,ls),
(865,0,o),
(756,78,o),
(686,233,c),
(549,151,l),
(344,157,o),
(116,178,o),
(101,271,cs),
(98,292,o),
(97,322,o),
(97,363,cs),
(97,629,o),
(240,743,o),
(538,883,c),
(503,1037,l),
(615,1137,ls),
(648,1167,o),
(660,1175,o),
(671,1123,cs),
(807,492,ls),
(830,386,o),
(915,333,o),
(1022,333,cs),
(1043,333,ls),
(1070,333,o),
(1074,294,o),
(1074,217,cs),
(1074,114,ls),
(1074,38,o),
(1069,0,o),
(1043,0,cs)
);
},
{
closed = 1;
nodes = (
(422,656,o),
(264,585,o),
(264,511,cs),
(264,454,o),
(385,447,o),
(530,447,cs),
(567,447,o),
(602,447,o),
(634,449,c),
(577,706,l)
);
}
);
width = 1039;
}
);
}
{
glyphname = "heh-ar.init";
layers = (
{
anchors = (
{
name = "Anchor-10";
pos = (506.665,1370.8);
},
{
name = "Anchor-7";
pos = (526.996,-230.546);
}
);
layerId = m001;
shapes = (
{
closed = 1;
nodes = (
(249,333,l),
(187,385,o),
(167,442,o),
(167,524,cs),
(167,644,o),
(232,759,o),
(353,845,c),
(255,877,l),
(339,1137,l),
(718,963,ls),
(1015,827,o),
(1132,677,o),
(1132,478,cs),
(1132,258,o),
(1023,56,o),
(926,56,cs),
(828,56,o),
(678,85,o),
(532,134,c),
(350,38,o),
(177,0,o),
(49,0,cs),
(-5,0,ls),
(-48,0,o),
(-50,38,o),
(-50,113,cs),
(-50,219,ls),
(-50,295,o),
(-48,333,o),
(-5,333,cs)
);
},
{
closed = 1;
nodes = (
(985,346,o),
(999,407,o),
(999,453,cs),
(999,532,o),
(893,581,o),
(769,639,c),
(769.034,636.569,o),
(769.052,634.109,o),
(769.052,631.62,cs),
(769.052,560.395,o),
(754.468,466.063,o),
(682,382,c),
(794,347,o),
(904,317,o),
(969,316,c)
);
},
{
closed = 1;
nodes = (
(634,696,o),
(578,742,o),
(495,742,cs),
(424,742,o),
(318,678,o),
(318,583,cs),
(318,519,o),
(425,465,o),
(533,439,c),
(590,469,o),
(634,545,o),
(634,632,cs)
);
}
);
width = 1221;
}
);
}
{
glyphname = "heh-ar.medi";
layers = (
{
anchors = (
{
name = "Anchor-10";
pos = (483.603,1154.79);
},
{
name = "Anchor-7";
pos = (585.778,-775.076);
}
);
layerId = m001;
shapes = (
{
closed = 1;
nodes = (
(222,333,l),
(236,476,o),
(354,943,o),
(492,943,cs),
(577,943,o),
(782,687,o),
(782,485,cs),
(782,271,o),
(584,31,o),
(356,2,c),
(381,-70,o),
(478,-187,o),
(593,-243,c),
(662,154,o),
(790,333,o),
(988,333,cs),
(1021,333,ls),
(1048,333,o),
(1051,294,o),
(1051,217,cs),
(1051,114,ls),
(1051,38,o),
(1048,0,o),
(1021,0,cs),
(989,0,ls),
(644,0,o),
(713,-198,o),
(817,-418,c),
(642,-569,l),
(413,-406,o),
(268,-249,o),
(227,0,c),
(-5,0,ls),
(-48,0,o),
(-50,38,o),
(-50,113,cs),
(-50,219,ls),
(-50,295,o),
(-48,333,o),
(-5,333,cs)
);
},
{
closed = 1;
nodes = (
(545,342,o),
(642,354,o),
(642,434,cs),
(642,466,o),
(568,560,o),
(459,636,c),
(383,527,o),
(360,418,o),
(342,334,c)
);
}
);
width = 1016;
}
);
}
{
glyphname = "kaf-ar.fina";
layers = (
{
anchors = (
{
name = "Anchor-10";
pos = (976.84,1455.95);
},
{
name = "Anchor-7";
pos = (876.157,-267.146);
}
);
layerId = m001;
shapes = (
{
closed = 1;
nodes = (
(1126,1288,o),
(1132,1288,o),
(1137,1288,cs),
(1158,1288,o),
(1172,1281,o),
(1172,1263,cs),
(1172,1258,o),
(1171,1252,o),
(1169,1246,cs),
(1132,1140,l),
(1131,1137,l),
(1127,1137,ls),
(960,1121,o),
(881,1087,o),
(881,1039,cs),
(881,1013,o),
(928,989,o),
(1031,971,cs),
(1142,952,o),
(1200,886,o),
(1200,775,cs),
(1200,624,o),
(1073,551,o),
(927,551,cs),
(842,551,o),
(764,563,o),
(694,586,cs),
(691,588,l),
(691,591,l),
(705,732,l),
(706,739,l),
(712,737,ls),
(781,712,o),
(854,700,o),
(929,700,cs),
(1036,700,o),
(1103,724,o),
(1103,773,cs),
(1103,799,o),
(1063,824,o),
(969,844,cs),
(853,868,o),
(794,938,o),
(794,1049,cs),
(794,1213,o),
(952,1267,o),
(1120,1287,cs)
);
},
{
closed = 1;
nodes = (
(1771,397,o),
(1763,333,o),
(1929,333,cs),
(1973,333,ls),
(1998,333,o),
(2002,276,o),
(2002,161,cs),
(2002,154,ls),
(2002,51,o),
(1998,0,o),
(1973,0,cs),
(1930,0,ls),
(1779,0,o),
(1708,72,o),
(1663,190,c),
(1535,-20,o),
(1275,-57,o),
(831,-57,cs),
(352,-57,o),
(97,55,o),
(97,396,cs),
(97,521,o),
(136,639,o),
(213,755,c),
(304,718,l),
(268,628,o),
(250,560,o),
(250,509,cs),
(250,334,o),
(447,275,o),
(850,275,cs),
(1260,275,o),
(1585,277,o),
(1585,542,cs),
(1585,860,o),
(1567,1111,o),
(1518,1358,c),
(1680,1529,ls),
(1737,1590,o),
(1758,1609,o),
(1759,1504,cs),
(1768,605,ls)
);
}
);
width = 1967;
}
);
}
{
glyphname = "kaf-ar.init";
layers = (
{
anchors = (
{
name = "Anchor-10";
pos = (232.813,1528.15);
},
{
name = "Anchor-7";
pos = (340.972,-280.152);
}
);
layerId = m001;
shapes = (
{
closed = 1;
nodes = (
(138,333,ls),
(326,333,o),
(577,335,o),
(577,451,cs),
(577,544,o),
(238,800,o),
(45,940,cs),
(26,954,o),
(16,978,o),
(16,997,cs),
(16,1001,o),
(17,1006,o),
(18,1010,cs),
(76,1204,ls),
(82,1225,o),
(93,1238,o),
(105,1243,cs),
(871,1568,ls),
(897,1579,o),
(902,1568,o),
(897,1539,cs),
(860,1319,l),
(280,1078,l),
(588,830,o),
(725,611,o),
(725,474,cs),
(725,171,o),
(529,0,o),
(138,0,cs),
(-5,0,ls),
(-48,0,o),
(-50,38,o),
(-50,113,cs),
(-50,219,ls),
(-50,295,o),
(-48,333,o),
(-5,333,cs)
);
}
);
width = 957;
}
);
}
{
glyphname = "kaf-ar.medi";
layers = (
{
anchors = (
{
name = "Anchor-10";
pos = (179.4,1589.83);
},
{
name = "Anchor-7";
pos = (340.972,-280.152);
}
);
layerId = m001;
shapes = (
{
closed = 1;
nodes = (
(138,333,ls),
(326,333,o),
(577,335,o),
(577,451,cs),
(577,504,o),
(238,800,o),
(45,940,cs),
(26,954,o),
(16,978,o),
(16,997,cs),
(16,1001,o),
(17,1006,o),
(18,1010,cs),
(76,1204,ls),
(82,1225,o),
(93,1238,o),
(105,1243,cs),
(871,1568,ls),
(897,1579,o),
(902,1568,o),
(897,1539,cs),
(860,1319,l),
(280,1078,l),
(543,827,o),
(675.216,697.202,o),
(790,574,cs),
(940,413,o),
(1101,333,o),
(1234,333,cs),
(1257,333,ls),
(1284,333,o),
(1286,294,o),
(1286,217,cs),
(1286,114,ls),
(1286,38,o),
(1283,0,o),
(1257,0,cs),
(1234,0,ls),
(1019,0,o),
(856,114.06,o),
(708,331.06,c),
(652.697,117.785,o),
(463,0,o),
(138,0,cs),
(-5,0,ls),
(-48,0,o),
(-50,38,o),
(-50,113,cs),
(-50,219,ls),
(-50,295,o),
(-48,333,o),
(-5,333,cs)
);
}
);
width = 1251;
}
);
}
{
glyphname = "keheh-ar.fina";
layers = (
{
anchors = (
{
name = "Anchor-10";
pos = (1195.31,1454.92);
},
{
name = "Anchor-7";
pos = (876.157,-267.146);
}
);
layerId = m001;
shapes = (
{
closed = 1;
nodes = (
(1605,504,o),
(1264.95,798.563,o),
(1073,940,cs),
(1054,954,o),
(1044,978,o),
(1044,997,cs),
(1044,1001,o),
(1045,1006,o),
(1046,1010,cs),
(1104,1204,ls),
(1110,1225,o),
(1121,1238,o),
(1133,1243,cs),
(1899,1568,ls),
(1925,1579,o),
(1930,1568,o),
(1925,1539,cs),
(1888,1319,l),
(1308,1078,l),
(1571,827,o),
(1703.22,697.201,o),
(1818,574,cs),
(1968,413,o),
(2129,333,o),
(2262,333,cs),
(2285,333,ls),
(2312,333,o),
(2314,294,o),
(2314,217,cs),
(2314,114,ls),
(2314,38,o),
(2311,0,o),
(2285,0,cs),
(2262,0,ls),
(2047,0,o),
(1886.01,115,o),
(1738.01,332,c),
(1660.91,34.84,o),
(1244.43,-57,o),
(832,-57,cs),
(351.867,-57,o),
(96.988,55.126,o),
(96.988,396.01,cs),
(96.988,520.933,o),
(136.178,638.755,o),
(213,755,c),
(304,718,l),
(267.676,628.199,o),
(249.996,560.041,o),
(249.996,508.694,cs),
(249.996,332.715,o),
(449.003,275,o),
(855,275,cs),
(1130.53,275,o),
(1605,284.649,o),
(1605,451,cs)
);
}
);
width = 2278;
}
);
}
{
glyphname = "lam-ar.fina";
layers = (
{
anchors = (
{
name = "Anchor-10";
pos = (596.527,1034.82);
},
{
name = "Anchor-7";
pos = (646.427,-790.57);
}
);
layerId = m001;
shapes = (
{
closed = 1;
nodes = (
(1254,510,ls),
(1256.26,392.005,o),
(1307,333,o),
(1457,333,cs),
(1480,333,ls),
(1507,333,o),
(1510,294,o),
(1510,217,cs),
(1510,114,ls),
(1510,38,o),
(1507,0,o),
(1480,0,cs),
(1458,0,ls),
(1356,0,o),
(1306,21,o),
(1260,63,c),
(1261,18,ls),
(1273,-388,o),
(994,-600,o),
(625,-600,cs),
(289,-600,o),
(98,-464,o),
(98,-161,cs),
(98,-43,o),
(134,98,o),
(205,261,c),
(295,223,l),
(262,140,o),
(240,74,o),
(240,-19,cs),
(240,-213,o),
(398,-288,o),
(638,-288,cs),
(875,-288,o),
(1034,-234,o),
(1115,-127,c),
(1072,626,o),
(1031,1137,o),
(994,1358,c),
(1156,1529,ls),
(1213.42,1589.61,o),
(1233.91,1609.48,o),
(1235,1504,cs)
);
}
);
width = 1475;
}
);
}
{
glyphname = "lam-ar.init";
layers = (
{
anchors = (
{
name = "Anchor-10";
pos = (295.792,1638.77);
},
{
name = "Anchor-7";
pos = (190.901,-216.037);
}
);
layerId = m001;
shapes = (
{
closed = 1;
nodes = (
(66,333,ls),
(225,333,o),
(263,350,o),
(263,508,cs),
(263,613.616,o),
(207.722,1160.5,o),
(168,1358,c),
(330,1529,ls),
(387.416,1589.61,o),
(405,1609,o),
(409,1504,cs),
(445,569,ls),
(446.116,540.005,o),
(448,512,o),
(448,486,cs),
(448,161,o),
(370,0,o),
(66,0,cs),
(-5,0,ls),
(-48,0,o),
(-50,38,o),
(-50,113,cs),
(-50,219,ls),
(-50,295,o),
(-48,333,o),
(-5,333,cs)
);
}
);
width = 569;
}
);
}
{
glyphname = "lam-ar.medi";
layers = (
{
anchors = (
{
name = "Anchor-10";
pos = (304.953,1629.44);
},
{
name = "Anchor-7";
pos = (251.019,-201.037);
}
);
layerId = m001;
shapes = (
{
closed = 1;
nodes = (
(66,333,ls),
(202,333,o),
(269,400,o),
(269,539,cs),
(269,693.564,o),
(243.735,1092.27,o),
(201,1358,c),
(363,1529,ls),
(420.442,1589.63,o),
(440.906,1609.48,o),
(442,1504,cs),
(452,540,ls),
(454,374,o),
(468,333,o),
(610,333,cs),
(652,333,ls),
(679,333,o),
(682,294,o),
(682,217,cs),
(682,114,ls),
(682,38,o),
(679,0,o),
(652,0,cs),
(611,0,ls),
(481,0,o),
(413,55,o),
(348,146,c),
(272,55,o),
(178,0,o),
(66,0,cs),
(-5,0,ls),
(-48,0,o),
(-50,38,o),
(-50,113,cs),
(-50,219,ls),
(-50,295,o),
(-48,333,o),
(-5,333,cs)
);
}
);
width = 647;
}
);
}
{
glyphname = "lam_alef-ar.fina";
layers = (
{
anchors = (
{
name = "Anchor-6";
pos = (316.398,-243.901);
},
{
name = "Anchor-9";
pos = (223.848,1607.87);
}
);
layerId = m001;
shapes = (
{
closed = 1;
nodes = (
(1134,536,ls),
(1138,412,o),
(1171,333,o),
(1291,333,cs),
(1330,333,ls),
(1355,333,o),
(1360,276,o),
(1360,161,cs),
(1360,154,ls),
(1360,51,o),
(1355,0,o),
(1330,0,cs),
(1291,0,ls),
(1090,0,o),
(1004,152,o),
(989,391,c),
(840,170,o),
(659,1,o),
(426,1,cs),
(394,1,o),
(361,13,o),
(325,31,cs),
(85,151,ls),
(45,171,o),
(34,217,o),
(114,227,cs),
(252,244,o),
(478,285,o),
(630,378,c),
(562,580,o),
(432,883,o),
(124,1252,c),
(255,1519,l),
(545,1121,o),
(698,737,o),
(768,467,c),
(870,546,o),
(940,638,o),
(940,687,cs),
(940,860,o),
(906,1098,o),
(860,1358,c),
(1022,1529,ls),
(1079,1590,o),
(1097,1609,o),
(1101,1504,cs)
);
}
);
width = 1325;
}
);
}
{
glyphname = "lam_alef-ar";
layers = (
{
anchors = (
{
name = "Anchor-6";
pos = (1000.99,-196.011);
},
{
name = "Anchor-9";
pos = (223.848,1607.87);
}
);
layerId = m001;
shapes = (
{
closed = 1;
nodes = (
(1128.9,643.822,ls),
(1129.25,633.008,o),
(1129.53,622.838,o),
(1129.53,612.544,cs),
(1129.53,207.458,o),
(878.944,1.157,o),
(426.752,1.157,cs),
(403.356,1.157,o),
(375.425,9.402,o),
(344.475,24.864,cs),
(98,148,ls),
(45.862,174.783,o),
(24.225,224.361,o),
(115.464,230.825,cs),
(372,249,o),
(533,290,o),
(649,336,c),
(563.442,606.056,o),
(426.89,900.777,o),
(122.668,1248.33,c),
(255.206,1518.49,l),
(550.716,1116.57,o),
(710.489,728.803,o),
(792.734,404.108,c),
(897.335,456.828,o),
(950.415,513.284,o),
(950.415,603.854,cs),
(950.415,792.065,o),
(899.371,1163.14,o),
(860,1358,c),
(1022,1529,ls),
(1079.42,1589.61,o),
(1098,1609,o),
(1101,1504,cs)
);
}
);
width = 1254;
}
);
}
{
glyphname = "meem-ar.fina";
layers = (
{
anchors = (
{
name = "Anchor-10";
pos = (651.47,1032.19);
},
{
name = "Anchor-7";
pos = (214.624,-829.684);
}
);
layerId = m001;
shapes = (
{
closed = 1;
nodes = (
(1195,0,ls),
(1133,0,o),
(1091,13,o),
(1037,57,c),
(996,-139,o),
(893,-248,o),
(761,-248,cs),
(566,-248,o),
(500,-102,o),
(499,124,cs),
(499,236,l),
(378,198,o),
(298,147,o),
(262,87,c),
(299,-400,ls),
(300,-409,o),
(300,-418,o),
(300,-427,cs),
(300,-540,o),
(248,-654,o),
(145,-768,cs),
(137,-777,o),
(130,-781,o),
(125,-781,cs),
(117,-781,o),
(113,-770,o),
(112,-746,cs),
(96,-256,ls),
(94,-209,o),
(94,-165,o),
(94,-124,cs),
(94,117,o),
(104,229,o),
(238,366,cs),
(316,446,o),
(413,492,o),
(530,506,c),
(555,620,o),
(572,679,o),
(582,680,cs),
(590,681,o),
(604,673,o),
(624,658,cs),
(886,461,ls),
(1026,356,o),
(1123,333,o),
(1227,333,cs),
(1240,333,ls),
(1267,333,o),
(1270,294,o),
(1270,217,cs),
(1270,114,ls),
(1270,38,o),
(1267,0,o),
(1240,0,cs)
);
},
{
closed = 1;
nodes = (
(639,85,o),
(675,8,o),
(787,8,cs),
(827.829,8,o),
(893.019,44.749,o),
(893.019,101.577,cs),
(893.019,125.591,o),
(889.932,149.812,o),
(837,186,cs),
(739,253,o),
(647,311,o),
(643,314,c),
(640,275,o),
(639,231,o),
(639,201,cs)
);
}
);
width = 1235;
}
);
}
{
glyphname = "meem-ar.init";
layers = (
{
anchors = (
{
name = "Anchor-10";
pos = (581.194,1037.38);
},
{
name = "Anchor-7";
pos = (517.225,-257.984);
}
);
layerId = m001;
shapes = (
{
closed = 1;
nodes = (
(32,333,ls),
(166,333,o),
(256,353,o),
(302,433,cs),
(384,571,o),
(493,785,o),
(658,785,cs),
(827,785,o),
(948,574,o),
(948,358,cs),
(948,157.548,o),
(852.089,2,o),
(682,2,cs),
(574.35,2,o),
(448.581,73.903,o),
(340,144,c),
(269,38,o),
(167,0,o),
(24,0,cs),
(-5,0,ls),
(-48,0,o),
(-50,38,o),
(-50,113,cs),
(-50,219,ls),
(-50,295,o),
(-48,333,o),
(-5,333,cs)
);
},
{
closed = 1;
nodes = (
(766,306,o),
(803,324,o),
(803,361,cs),
(803,448,o),
(670,539,o),
(620,539,cs),
(545,539,o),
(496,473,o),
(459,418,c),
(580,343,o),
(670,306,o),
(729,306,cs)
);
}
);
width = 1031;
}
);
}
{
glyphname = "meem-ar.medi";
layers = (
{
anchors = (
{
name = "Anchor-10";
pos = (581.194,986.32);
},
{
name = "Anchor-7";
pos = (492.041,-296.178);
}
);
layerId = m001;
shapes = (
{
closed = 1;
nodes = (
(42,333,ls),
(148,333,o),
(260,335,o),
(298,394,cs),
(375,513,o),
(468,679,o),
(599,679,cs),
(737,679,o),
(825,553,o),
(912,393,cs),
(934,353,o),
(986,333,o),
(1108,333,cs),
(1129,333,ls),
(1156,333,o),
(1159,294,o),
(1159,217,cs),
(1159,113,ls),
(1159,38,o),
(1156,0,o),
(1129,0,cs),
(1109,0,ls),
(1030,0,o),
(962,40,o),
(881,100,c),
(830,13,o),
(772,-67,o),
(656,-67,cs),
(538,-67,o),
(414,13,o),
(317,73,c),
(235,24,o),
(144,0,o),
(45,0,cs),
(-5,0,ls),
(-48,0,o),
(-50,38,o),
(-50,113,cs),
(-50,219,ls),
(-50,295,o),
(-48,333,o),
(-5,333,cs)
);
},
{
closed = 1;
nodes = (
(735,239,o),
(775,251,o),
(775,285,cs),
(775,336,o),
(657,446,o),
(587,446,cs),
(528,446,o),
(477,411,o),
(433,342,c),
(553,273,o),
(643,239,o),
(702,239,cs)
);
}
);
width = 1124;
}
);
}
{
glyphname = "noonghunna-ar.fina";
layers = (
{
anchors = (
{
name = "Anchor-10";
pos = (599.156,1040.11);
},
{
name = "Anchor-7";
pos = (472.178,-1009.45);
}
);
layerId = m001;
shapes = (
{
closed = 1;
nodes = (
(1259.82,354.518,o),
(1296.23,333,o),
(1443,333,cs),
(1485,333,ls),
(1512,333,o),
(1514,294,o),
(1514,217,cs),
(1514,114,ls),
(1514,38,o),
(1512,0,o),
(1485,0,cs),
(1453,0,ls),
(1377,0,o),
(1339,13,o),
(1292,40,c),
(1286,-387,o),
(1029,-600,o),
(651,-600,cs),
(305.448,-600,o),
(93,-473.097,o),
(93,-170,cs),
(93,-46,o),
(129,98,o),
(200,261,c),
(290,223,l),
(253,131,o),
(235,50,o),
(235,-19,cs),
(235,-214.586,o),
(410.442,-289,o),
(642,-289,cs),
(871,-289,o),
(1066,-224,o),
(1165,-103,c),
(1110,50,o),
(1044,199,o),
(967,324,c),
(1090,530,ls),
(1115.42,571.867,o),
(1127.55,590.752,o),
(1152,550,cs),
(1161,535,o),
(1179,503,o),
(1206,454,cs)
);
}
);
width = 1479;
}
);
}
{
glyphname = "qafDotless-ar.fina";
layers = (
{
anchors = (
{
name = "Anchor-7";
pos = (428.256,-882.609);
}
);
layerId = m001;
shapes = (
{
closed = 1;
nodes = (
(1107,426,o),
(1046,489,o),
(969,489,cs),
(898,489,o),
(833,421,o),
(833,368,cs),
(833,336,o),
(899,320,o),
(1032,320,cs),
(1081,320,o),
(1122,321,o),
(1154,322,c)
);
},
{
closed = 1;
nodes = (
(1167.4,-109.98,o),
(1169.19,-87.986,o),
(1169.19,-65.791,cs),
(1169.19,-44.267,o),
(1167.51,-22.552,o),
(1164,-5,c),
(1027,-5,ls),
(815,-5,o),
(712,69,o),
(712,227,cs),
(712,433,o),
(800,732,o),
(997,732,cs),
(1187,732,o),
(1275,520,o),
(1292,333,c),
(1438,333,ls),
(1463,333,o),
(1467,279,o),
(1467,171,cs),
(1467,164,ls),
(1467,55,o),
(1463,0,o),
(1438,0,cs),
(1288,0,l),
(1285.48,-369.88,o),
(1045.21,-599,o),
(653,-599,cs),
(314,-599,o),
(97,-476,o),
(97,-161,cs),
(97,-43,o),
(133,97,o),
(204,261,c),
(294,223,l),
(259,135,o),
(239,76,o),
(239,-19,cs),
(239,-215,o),
(404,-287,o),
(659,-287,cs),
(924,-287,o),
(1089,-233,o),
(1164,-127,c)
);
}
);
width = 1432;
}
);
}
{
glyphname = "reh-ar.fina";
layers = (
{
anchors = (
{
name = "Anchor-10";
pos = (524.788,912);
},
{
name = "Anchor-7";
pos = (341.096,-713.978);
}
);
layerId = m001;
shapes = (
{
closed = 1;
nodes = (
(862,0,ls),
(784,0,o),
(763,12,o),
(720,36,c),
(707,-157,o),
(617,-348,o),
(520,-460,cs),
(462,-527,o),
(426,-552,o),
(299,-552,cs),
(235,-552,o),
(-65,-524,o),
(-65,-471,cs),
(-65,-461,o),
(-48,-449,o),
(-16,-440,cs),
(327,-342,o),
(578,-41,o),
(578,52,cs),
(578,103,o),
(535,179,o),
(438,301,c),
(552,521,ls),
(561,537,o),
(573,534,o),
(588,513,cs),
(621,468,o),
(647,432,o),
(667,406,cs),
(719,338,o),
(744,333,o),
(862,333,cs),
(887,333,ls),
(914,333,o),
(917,294,o),
(917,217,cs),
(917,114,ls),
(917,38,o),
(913,0,o),
(887,0,cs)
);
}
);
width = 882;
}
);
}
{
glyphname = "sad-ar.fina";
layers = (
{
anchors = (
{
name = "Anchor-10";
pos = (2064.47,1296.94);
},
{
name = "Anchor-7";
pos = (636.427,-790.57);
}
);
layerId = m001;
shapes = (
{
closed = 1;
nodes = (
(1524,0,ls),
(1428,0,o),
(1348,13,o),
(1292,40,c),
(1286,-387,o),
(1029,-600,o),
(651,-600,cs),
(305,-600,o),
(93,-473,o),
(93,-170,cs),
(93,-46,o),
(129,98,o),
(200,261,c),
(290,223,l),
(253,131,o),
(235,50,o),
(235,-19,cs),
(235,-215,o),
(410,-289,o),
(642,-289,cs),
(871,-289,o),
(1066,-224,o),
(1165,-103,c),
(1110,50,o),
(1044,199,o),
(967,324,c),
(1090,530,ls),
(1113.37,568.943,o),
(1126.55,592.757,o),
(1152,550,cs),
(1161,535,o),
(1179,503,o),
(1206,454,cs),
(1252,370,o),
(1296,340,o),
(1420,339,c),
(1671,709,o),
(1910,893,o),
(2139,893,cs),
(2348,893,o),
(2478,752,o),
(2478,533,cs),
(2478,458,o),
(2465,391,o),
(2439,333,c),
(2656,333,ls),
(2681,333,o),
(2682,294,o),
(2682,217,cs),
(2682,114,ls),
(2682,38,o),
(2681,0,o),
(2656,0,cs),
(2553,0,ls),
(2394,0,o),
(2275,32,o),
(2194,97,c),
(2054,32,o),
(1869,0,o),
(1653,0,cs)
);
},
{
closed = 1;
nodes = (
(2323,534,o),
(2216,588,o),
(2106,588,cs),
(1883,588,o),
(1716,449,o),
(1576,335,c),
(1856,335,ls),
(2165,335,o),
(2323,369,o),
(2323,438,cs)
);
}
);
width = 2647;
}
);
}
{
glyphname = "sad-ar.init";
layers = (
{
anchors = (
{
name = "Anchor-10";
pos = (1291.92,1280.47);
},
{
name = "Anchor-7";
pos = (783.338,-228.584);
}
);
layerId = m001;
shapes = (
{
closed = 1;
nodes = (
(37,333,ls),
(224,333,o),
(320,393,o),
(323,513,cs),
(327,614,l),
(444,614,l),
(450,514,ls),
(455,406,o),
(533,348,o),
(686,339,c),
(937,709,o),
(1177,893,o),
(1405,893,cs),
(1614,893,o),
(1744,752,o),
(1744,533,cs),
(1744,158,o),
(1410,0,o),
(919,0,cs),
(790,0,ls),
(604,0,o),
(472,56,o),
(391,149,c),
(319,56,o),
(200,0,o),
(37,0,cs),
(-5,0,ls),
(-48,0,o),
(-50,38,o),
(-50,113,cs),
(-50,219,ls),
(-50,295,o),
(-48,333,o),
(-5,333,cs)
);
},
{
closed = 1;
nodes = (
(1589,534,o),
(1482,588,o),
(1372,588,cs),
(1149,588,o),
(982,449,o),
(842,335,c),
(1122,335,ls),
(1431,335,o),
(1589,369,o),
(1589,438,cs)
);
}
);
width = 1840;
}
);
}
{
glyphname = "sad-ar.medi";
layers = (
{
anchors = (
{
name = "Anchor-10";
pos = (1289.92,1280.47);
},
{
name = "Anchor-7";
pos = (781.338,-229.584);
}
);
layerId = m001;
shapes = (
{
closed = 1;
nodes = (
(37,333,ls),
(224,333,o),
(320,393,o),
(323,513,cs),
(327,614,l),
(444,614,l),
(450,514,ls),
(455,406,o),
(533,348,o),
(686,339,c),
(937,709,o),
(1176,893,o),
(1405,893,cs),
(1614,893,o),
(1744,752,o),
(1744,533,cs),
(1744,458,o),
(1731,391,o),
(1705,333,c),
(1925,333,ls),
(1950,333,o),
(1954,294,o),
(1954,217,cs),
(1954,114,ls),
(1954,38,o),
(1950,0,o),
(1925,0,cs),
(1818,0,ls),
(1659,0,o),
(1541,32,o),
(1460,97,c),
(1320,32,o),
(1135,0,o),
(919,0,cs),
(790,0,ls),
(604,0,o),
(472,56,o),
(391,149,c),
(319,56,o),
(200,0,o),
(37,0,cs),
(-5,0,ls),
(-48,0,o),
(-50,38,o),
(-50,113,cs),
(-50,219,ls),
(-50,295,o),
(-48,333,o),
(-5,333,cs)
);
},
{
closed = 1;
nodes = (
(1589,534,o),
(1482,588,o),
(1372,588,cs),
(1149,588,o),
(982,449,o),
(842,335,c),
(1122,335,ls),
(1431,335,o),
(1589,369,o),
(1589,438,cs)
);
}
);
width = 1919;
}
);
}
{
glyphname = "seen-ar.fina";
layers = (
{
anchors = (
{
name = "Anchor-10";
pos = (1698.47,1125.44);
},
{
name = "Anchor-7";
pos = (636.427,-790.57);
}
);
layerId = m001;
shapes = (
{
closed = 1;
nodes = (
(1802,3,o),
(1722,63,o),
(1661,153,c),
(1585,61,o),
(1508,-1,o),
(1426,-1,cs),
(1382,-1,o),
(1337,13,o),
(1293,40,c),
(1287,-387,o),
(1030,-600,o),
(652,-600,cs),
(306.448,-600,o),
(94,-473.097,o),
(94,-170,cs),
(94,-46,o),
(130,98,o),
(201,261,c),
(291,223,l),
(254,131,o),
(236,50,o),
(236,-19,cs),
(236,-214.586,o),
(411.442,-289,o),
(643,-289,cs),
(872,-289,o),
(1067,-224,o),
(1166,-103,c),
(1111,50,o),
(1045,199,o),
(968,324,c),
(1091,530,ls),
(1116.42,571.867,o),
(1128.55,590.752,o),
(1153,550,cs),
(1162,535,o),
(1180,503,o),
(1207,454,cs),
(1259,360,o),
(1299,333,o),
(1431,333,cs),
(1542,333,o),
(1607,389,o),
(1624,493,cs),
(1643,605,l),
(1764,587,l),
(1753,500,ls),
(1740.38,388.731,o),
(1836,334,o),
(1926,333,cs),
(2053,333,o),
(2113,390,o),
(2116,514,cs),
(2119,618,l),
(2236,618,l),
(2241,518,ls),
(2247,396,o),
(2307,335,o),
(2481,335,cs),
(2507,335,ls),
(2534,335,o),
(2538,296,o),
(2538,219,cs),
(2538,116,ls),
(2538,40,o),
(2533,2,o),
(2507,2,cs),
(2482,2,ls),
(2312,2,o),
(2236,62,o),
(2186,151,c),
(2120,62,o),
(2038,2,o),
(1918,2,cs)
);
}
);
width = 2503;
}
);
}
{
glyphname = "seen-ar.init";
layers = (
{
anchors = (
{
name = "Anchor-10";
pos = (911.609,1132.63);
},
{
name = "Anchor-7";
pos = (806.934,-221.292);
}
);
layerId = m001;
shapes = (
{
closed = 1;
nodes = (
(69,333,ls),
(263,333,o),
(349,379,o),
(365,469,cs),
(387,581,l),
(504,563,l),
(489,477,ls),
(488,468,o),
(487,458,o),
(487,450,cs),
(487,372,o),
(549,333,o),
(668,333,cs),
(798,333,o),
(869,384,o),
(887,490,cs),
(908,603,l),
(1029,585,l),
(1017,498,ls),
(1016,488,o),
(1015,479,o),
(1015,470,cs),
(1015,379,o),
(1076,333,o),
(1199,333,cs),
(1298,333,o),
(1347,359,o),
(1347,409,cs),
(1347,431,o),
(1308,496,o),
(1234,604,c),
(1366,832,ls),
(1388,869,o),
(1399,857,o),
(1420,821,cs),
(1484,716,o),
(1518,591,o),
(1518,447,cs),
(1518,232,o),
(1384,0,o),
(1181,0,cs),
(1075,0,o),
(981,59,o),
(927,149,c),
(852,58,o),
(765,0,o),
(658,0,cs),
(534,0,o),
(444,59,o),
(393,148,c),
(325,59,o),
(229,0,o),
(69,0,cs),
(-5,0,ls),
(-48,0,o),
(-50,38,o),
(-50,113,cs),
(-50,219,ls),
(-50,295,o),
(-48,333,o),
(-5,333,cs)
);
}
);
width = 1602;
}
);
}
{
glyphname = "seen-ar.medi";
layers = (
{
anchors = (
{
name = "Anchor-10";
pos = (917.609,1125.13);
},
{
name = "Anchor-7";
pos = (818.934,-214.076);
}
);
layerId = m001;
shapes = (
{
closed = 1;
nodes = (
(69,333,ls),
(263,333,o),
(349,379,o),
(365,469,cs),
(387,581,l),
(504,563,l),
(489,477,ls),
(488,468,o),
(487,458,o),
(487,450,cs),
(487,372,o),
(548,333,o),
(668,333,cs),
(796,333,o),
(869,385,o),
(887,490,cs),
(908,603,l),
(1029,585,l),
(1017,498,ls),
(1016,488,o),
(1015,479,o),
(1015,470,cs),
(1015,379,o),
(1076,333,o),
(1199,333,cs),
(1326,333,o),
(1386,388,o),
(1389,512,cs),
(1392,616,l),
(1509,616,l),
(1514,516,ls),
(1520,394,o),
(1580,333,o),
(1754,333,cs),
(1780,333,ls),
(1807,333,o),
(1809,294,o),
(1809,217,cs),
(1809,114,ls),
(1809,38,o),
(1806,0,o),
(1780,0,cs),
(1755,0,ls),
(1585,0,o),
(1509,60,o),
(1459,149,c),
(1393,60,o),
(1311,0,o),
(1191,0,cs),
(1069.58,0,o),
(981.464,57.219,o),
(927,149,c),
(851,57,o),
(763,-1,o),
(661,-1,cs),
(535,-1,o),
(445,58,o),
(393,147,c),
(325,58,o),
(229,0,o),
(69,0,cs),
(-5,0,ls),
(-48,0,o),
(-50,38,o),
(-50,113,cs),
(-50,219,ls),
(-50,295,o),
(-48,333,o),
(-5,333,cs)
);
}
);
width = 1774;
}
);
}
{
glyphname = "tah-ar.fina";
layers = (
{
anchors = (
{
name = "Anchor-10";
pos = (568.377,1634.21);
},
{
name = "Anchor-7";
pos = (736.45,-238.796);
}
);
layerId = m001;
shapes = (
{
closed = 1;
nodes = (
(864,799,o),
(1030,893,o),
(1170,893,cs),
(1379,893,o),
(1509,752,o),
(1509,533,cs),
(1509,458,o),
(1496,391,o),
(1470,333,c),
(1690,333,ls),
(1715,333,o),
(1716,294,o),
(1716,217,cs),
(1716,114,ls),
(1716,38,o),
(1715,0,o),
(1690,0,cs),
(1583,0,ls),
(1424,0,o),
(1306,32,o),
(1225,97,c),
(1085,32,o),
(899,1,o),
(684,0,cs),
(543,0,ls),
(473,0,o),
(414,16,o),
(362,52,cs),
(278,110,o),
(199,170,o),
(125,230,cs),
(82,265,o),
(61,290,o),
(61,307,cs),
(61,326,o),
(85,333,o),
(125,333,cs),
(448,335,l),
(469,362,o),
(490,390,o),
(513,417,c),
(506,733,o),
(486,1148,o),
(437,1358,c),
(599,1529,ls),
(657,1589,o),
(676,1609,o),
(678,1504,cs),
(694,611,l)
);
},
{
closed = 1;
nodes = (
(1354,534,o),
(1247,588,o),
(1137,588,cs),
(914,588,o),
(747,449,o),
(607,335,c),
(887,335,ls),
(1196,335,o),
(1354,369,o),
(1354,438,cs)
);
}
);
width = 1681;
}
);
}
{
glyphname = "tah-ar.init";
layers = (
{
anchors = (
{
name = "Anchor-10";
pos = (268.146,1637.21);
},
{
name = "Anchor-7";
pos = (460,-234.904);
}
);
layerId = m001;
shapes = (
{
closed = 1;
nodes = (
(155,335,l),
(176,362,o),
(197,390,o),
(220,417,c),
(213,733,o),
(193,1148,o),
(144,1358,c),
(306,1529,ls),
(364,1589,o),
(383,1609,o),
(385,1504,cs),
(401,611,l),
(571,799,o),
(737,893,o),
(877,893,cs),
(1086.2,893,o),
(1216.01,751.09,o),
(1216.01,532.518,cs),
(1216.01,157.903,o),
(881,0,o),
(391,0,cs),
(-5,0,ls),
(-48,0,o),
(-50,38,o),
(-50,113,cs),
(-50,219,ls),
(-50,295,o),
(-48,332,o),
(-5,333,cs)
);
},
{
closed = 1;
nodes = (
(1061,534,o),
(954,588,o),
(844,588,cs),
(621,588,o),
(454,449,o),
(314,335,c),
(594,335,ls),
(903,335,o),
(1061,369,o),
(1061,438,cs)
);
}
);
width = 1311;
}
);
}
{
glyphname = "tah-ar.medi";
layers = (
{
anchors = (
{
name = "Anchor-10";
pos = (268.146,1637.21);
},
{
name = "Anchor-7";
pos = (472,-229.796);
}
);
layerId = m001;
shapes = (
{
closed = 1;
nodes = (
(155,335,l),
(176,362,o),
(197,390,o),
(220,417,c),
(213,733,o),
(193,1148,o),
(144,1358,c),
(306,1529,ls),
(364,1589,o),
(383,1609,o),
(385,1504,cs),
(401,611,l),
(571,799,o),
(737,893,o),
(877,893,cs),
(1086,893,o),
(1216,752,o),
(1216,533,cs),
(1216,458,o),
(1203,391,o),
(1177,333,c),
(1398,333,ls),
(1423,333,o),
(1425,294,o),
(1425,217,cs),
(1425,114,ls),
(1425,38,o),
(1423,0,o),
(1398,0,cs),
(1291,0,ls),
(1132,0,o),
(1013,32,o),
(932,97,c),
(792,32,o),
(607,0,o),
(391,0,cs),
(-5,0,ls),
(-48,0,o),
(-50,38,o),
(-50,113,cs),
(-50,219,ls),
(-50,295,o),
(-48,332,o),
(-5,333,cs)
);
},
{
closed = 1;
nodes = (
(1061,534,o),
(954,588,o),
(844,588,cs),
(621,588,o),
(454,449,o),
(314,335,c),
(594,335,ls),
(903,335,o),
(1061,369,o),
(1061,438,cs)
);
}
);
width = 1390;
}
);
}
{
glyphname = "waw-ar.fina";
layers = (
{
anchors = (
{
name = "Anchor-10";
pos = (414.667,1030.67);
},
{
name = "Anchor-7";
pos = (341.096,-713.978);
}
);
layerId = m001;
shapes = (
{
closed = 1;
nodes = (
(723,0,l),
(684,-201,o),
(620,-354,o),
(531,-460,cs),
(472,-530,o),
(431,-551,o),
(304,-551,cs),
(223,-551,o),
(-45,-524,o),
(-46,-473,cs),
(-46.132,-466.293,o),
(-28,-449,o),
(1,-440,cs),
(266,-353,o),
(456,-208,o),
(573,-5,c),
(461,-5,ls),
(249,-5,o),
(146,69,o),
(146,227,cs),
(146,433,o),
(234,732,o),
(431,732,cs),
(621,732,o),
(709,520,o),
(726,333,c),
(848,333,ls),
(875,333,o),
(878,294,o),
(878,217,cs),
(878,114,ls),
(878,38,o),
(875,0,o),
(848,0,cs)
);
},
{
closed = 1;
nodes = (
(541,426,o),
(480,489,o),
(403,489,cs),
(332,489,o),
(267,421,o),
(267,368,cs),
(267,336,o),
(333,320,o),
(466,320,cs),
(515,320,o),
(556,321,o),
(588,322,c)
);
}
);
width = 843;
}
);
}
{
glyphname = "yehFarsi-ar.fina.compact";
layers = (
{
anchors = (
{
name = "Anchor-10";
pos = (709.6,587.22);
},
{
name = "Anchor-7";
pos = (723.902,-802.086);
}
);
layerId = m001;
shapes = (
{
closed = 1;
nodes = (
(81.839,-59.192,o),
(118.984,77.802,o),
(193.275,222.254,c),
(283.134,184.475,l),
(249.045,90.158,o),
(231.837,1.866,o),
(231.51,-80.4,cs),
(231.835,-244.051,o),
(392.079,-325.876,o),
(712.24,-325.876,cs),
(958.822,-325.876,o),
(1140.23,-295.09,o),
(1260,-234.609,cs),
(1289.85,-219.61,o),
(1286.85,-210.272,o),
(1250.99,-206.598,cs),
(1040.53,-184.62,ls),
(936.63,-174.022,o),
(883.933,-128.222,o),
(883.933,-51,cs),
(883.933,106.798,o),
(1019.36,333.001,o),
(1175.62,333.001,cs),
(1488.12,333.001,ls),
(1514.64,333,o),
(1527.91,294.361,o),
(1527.91,217.083,cs),
(1527.91,113.832,ls),
(1527.97,37.944,o),
(1514.71,0,o),
(1488.12,0,cs),
(1468.75,0,ls),
(1350.58,0,o),
(1152.69,82.23,o),
(1085.57,82.23,cs),
(1044.5,82.23,o),
(1025.41,-11.988,o),
(1024.51,-18.106,c),
(1260,-44,ls),
(1355.83,-54.537,o),
(1413.25,-84.871,o),
(1413.25,-171.795,cs),
(1413.25,-443.443,o),
(1094.37,-623.817,o),
(689.452,-623.817,cs),
(335.451,-623.817,o),
(81.839,-514.96,o),
(81.839,-188.729,cs)
);
}
);
width = 1483;
}
);
}
